<?xml version="1.0" encoding="UTF-8" standalone="no"?>
<svg width="391.583mm" height="72.6722mm"
 xmlns="http://www.w3.org/2000/svg" xmlns:xlink="http://www.w3.org/1999/xlink"  version="1.2" baseProfile="tiny">
<title>Qt Svg Document</title>
<desc>Generated with Qt</desc>
<defs>
</defs>
<g fill="none" stroke="black" stroke-width="1" fill-rule="evenodd" stroke-linecap="square" stroke-linejoin="bevel" >

<g fill="none" stroke="#000000" stroke-opacity="1" stroke-width="1" stroke-linecap="square" stroke-linejoin="bevel" transform="matrix(1,0,0,1,0,0)"
font-family="Ubuntu" font-size="11" font-weight="400" font-style="normal" 
>
</g>

<g fill="none" stroke="#000000" stroke-opacity="1" stroke-width="1" stroke-linecap="square" stroke-linejoin="bevel" transform="matrix(1,0,0,1,0,0)"
font-family="Ubuntu" font-size="11" font-weight="400" font-style="normal" 
>
</g>

<g fill="none" stroke="#000000" stroke-opacity="1" stroke-width="1" stroke-linecap="square" stroke-linejoin="bevel" transform="matrix(2,0,0,2,-15,221)"
font-family="Ubuntu" font-size="11" font-weight="400" font-style="normal" 
>
</g>

<g fill="#ffffff" fill-opacity="1" stroke="none" transform="matrix(2,0,0,2,-15,221)"
font-family="Ubuntu" font-size="11" font-weight="400" font-style="normal" 
>
<path vector-effect="non-scaling-stroke" fill-rule="evenodd" d="M7.5,-110.5 L562.5,-110.5 L562.5,-7.5 L7.5,-7.5 L7.5,-110.5"/>
</g>

<g fill="none" stroke="#000000" stroke-opacity="1" stroke-width="1" stroke-linecap="square" stroke-linejoin="bevel" transform="matrix(2,0,0,2,-15,221)"
font-family="Ubuntu" font-size="11" font-weight="400" font-style="normal" 
>
</g>

<g fill="none" stroke="#000000" stroke-opacity="1" stroke-width="1" stroke-linecap="square" stroke-linejoin="bevel" transform="matrix(2,0,0,2,-15,221)"
font-family="Ubuntu" font-size="11" font-weight="400" font-style="normal" 
>
</g>

<g fill="none" stroke="#000000" stroke-opacity="1" stroke-width="1" stroke-linecap="square" stroke-linejoin="bevel" transform="matrix(2,0,0,2,-15,221)"
font-family="Ubuntu" font-size="11" font-weight="400" font-style="normal" 
>
</g>

<g fill="none" stroke="#000000" stroke-opacity="1" stroke-width="1" stroke-linecap="square" stroke-linejoin="bevel" transform="matrix(2,0,0,2,-15,221)"
font-family="Ubuntu" font-size="11" font-weight="400" font-style="normal" 
>
</g>

<g fill="none" stroke="#000000" stroke-opacity="1" stroke-width="1" stroke-linecap="square" stroke-linejoin="round" transform="matrix(2,0,0,2,-15,221)"
font-family="Ubuntu" font-size="11" font-weight="400" font-style="normal" 
>
<path vector-effect="none" fill-rule="evenodd" d="M106.5,-105.5 L159.5,-105.5 L159.5,-70.5 L106.5,-70.5 L106.5,-105.5"/>
</g>

<g fill="none" stroke="#000000" stroke-opacity="1" stroke-width="1" stroke-linecap="square" stroke-linejoin="bevel" transform="matrix(2,0,0,2,-15,221)"
font-family="Ubuntu" font-size="11" font-weight="400" font-style="normal" 
>
</g>

<g fill="none" stroke="#000000" stroke-opacity="1" stroke-width="1" stroke-linecap="square" stroke-linejoin="bevel" transform="matrix(2,0,0,2,237.125,31)"
font-family="Ubuntu" font-size="11" font-weight="400" font-style="normal" 
>
</g>

<g fill="none" stroke="#000000" stroke-opacity="1" stroke-width="1" stroke-linecap="square" stroke-linejoin="bevel" transform="matrix(2,0,0,2,237.125,31)"
font-family="sans" font-size="11" font-weight="100" font-style="normal" 
>
</g>

<g fill="#000000" fill-opacity="1" stroke="#000000" stroke-opacity="1" stroke-width="1" stroke-linecap="square" stroke-linejoin="round" transform="matrix(2,0,0,2,237.125,31)"
font-family="sans" font-size="11" font-weight="100" font-style="normal" 
>
<path vector-effect="non-scaling-stroke" fill-rule="nonzero" d="M2.79688,2.98438 L3.70312,2.98438 L0.90625,12.0156 L0,12.0156 L2.79688,2.98438 M5.71875,3.28125 L5.71875,4.98438 L7.75,4.98438 L7.75,5.75 L5.71875,5.75 L5.71875,9.01562 C5.71875,9.50521 5.78646,9.82031 5.92188,9.96094 C6.05729,10.1016 6.32812,10.1719 6.73438,10.1719 L7.75,10.1719 L7.75,11 L6.73438,11 C5.97396,11 5.44792,10.8568 5.15625,10.5703 C4.86458,10.2839 4.71875,9.76562 4.71875,9.01562 L4.71875,5.75 L4,5.75 L4,4.98438 L4.71875,4.98438 L4.71875,3.28125 L5.71875,3.28125 M12.0938,2.64062 L12.0938,3.46875 L11.1562,3.46875 C10.8021,3.46875 10.5547,3.53906 10.4141,3.67969 C10.2734,3.82031 10.2031,4.07812 10.2031,4.45312 L10.2031,4.98438 L11.8281,4.98438 L11.8281,5.75 L10.2031,5.75 L10.2031,11 L9.21875,11 L9.21875,5.75 L8.26562,5.75 L8.26562,4.98438 L9.21875,4.98438 L9.21875,4.5625 C9.21875,3.89583 9.3724,3.40885 9.67969,3.10156 C9.98698,2.79427 10.4792,2.64062 11.1562,2.64062 L12.0938,2.64062"/>
</g>

<g fill="none" stroke="#000000" stroke-opacity="1" stroke-width="1" stroke-linecap="square" stroke-linejoin="bevel" transform="matrix(2,0,0,2,237.125,31)"
font-family="sans" font-size="11" font-weight="100" font-style="normal" 
>
</g>

<g fill="none" stroke="#000000" stroke-opacity="1" stroke-width="1" stroke-linecap="square" stroke-linejoin="bevel" transform="matrix(2,0,0,2,237.125,31)"
font-family="Ubuntu" font-size="11" font-weight="400" font-style="normal" 
>
</g>

<g fill="none" stroke="#000000" stroke-opacity="1" stroke-width="1" stroke-linecap="square" stroke-linejoin="bevel" transform="matrix(2,0,0,2,-15,221)"
font-family="Ubuntu" font-size="11" font-weight="400" font-style="normal" 
>
</g>

<g fill="none" stroke="#000000" stroke-opacity="1" stroke-width="1" stroke-linecap="square" stroke-linejoin="bevel" transform="matrix(2,0,0,2,-15,221)"
font-family="Ubuntu" font-size="11" font-weight="400" font-style="normal" 
>
</g>

<g fill="none" stroke="#000000" stroke-opacity="1" stroke-width="1" stroke-linecap="square" stroke-linejoin="bevel" transform="matrix(2,0,0,2,-15,221)"
font-family="Ubuntu" font-size="11" font-weight="400" font-style="normal" 
>
</g>

<g fill="none" stroke="#000000" stroke-opacity="1" stroke-width="1" stroke-linecap="square" stroke-linejoin="round" transform="matrix(2,0,0,2,-15,221)"
font-family="Ubuntu" font-size="11" font-weight="400" font-style="normal" 
>
<path vector-effect="none" fill-rule="evenodd" d="M73.0973,-61 C73.0973,-51.335 60.5177,-43.5 45,-43.5 C29.4823,-43.5 16.9027,-51.335 16.9027,-61 C16.9027,-70.665 29.4823,-78.5 45,-78.5 C60.5177,-78.5 73.0973,-70.665 73.0973,-61 "/>
</g>

<g fill="none" stroke="#000000" stroke-opacity="1" stroke-width="1" stroke-linecap="square" stroke-linejoin="bevel" transform="matrix(2,0,0,2,-15,221)"
font-family="Ubuntu" font-size="11" font-weight="400" font-style="normal" 
>
</g>

<g fill="none" stroke="#000000" stroke-opacity="1" stroke-width="1" stroke-linecap="square" stroke-linejoin="bevel" transform="matrix(2,0,0,2,45.5469,85)"
font-family="Ubuntu" font-size="11" font-weight="400" font-style="normal" 
>
</g>

<g fill="none" stroke="#000000" stroke-opacity="1" stroke-width="1" stroke-linecap="square" stroke-linejoin="bevel" transform="matrix(2,0,0,2,45.5469,85)"
font-family="sans" font-size="11" font-weight="100" font-style="normal" 
>
</g>

<g fill="#000000" fill-opacity="1" stroke="#000000" stroke-opacity="1" stroke-width="1" stroke-linecap="square" stroke-linejoin="round" transform="matrix(2,0,0,2,45.5469,85)"
font-family="sans" font-size="11" font-weight="100" font-style="normal" 
>
<path vector-effect="non-scaling-stroke" fill-rule="nonzero" d="M2.79688,2.98438 L3.70312,2.98438 L0.90625,12.0156 L0,12.0156 L2.79688,2.98438 M4.03125,4.98438 L5.07812,4.98438 L6.95312,10.0312 L8.84375,4.98438 L9.89062,4.98438 L7.625,11 L6.28125,11 L4.03125,4.98438 M14.7188,5.90625 C14.6146,5.84375 14.4974,5.79688 14.3672,5.76562 C14.237,5.73438 14.0938,5.71875 13.9375,5.71875 C13.375,5.71875 12.9453,5.90104 12.6484,6.26562 C12.3516,6.63021 12.2031,7.15104 12.2031,7.82812 L12.2031,11 L11.2031,11 L11.2031,4.98438 L12.2031,4.98438 L12.2031,5.92188 C12.401,5.55729 12.6667,5.28646 13,5.10938 C13.3333,4.93229 13.7396,4.84375 14.2188,4.84375 C14.2917,4.84375 14.3672,4.84635 14.4453,4.85156 C14.5234,4.85677 14.6146,4.86979 14.7188,4.89062 L14.7188,5.90625 M20.9062,7.75 L20.9062,8.23438 L16.3594,8.23438 C16.401,8.91146 16.6042,9.42708 16.9688,9.78125 C17.3333,10.1354 17.8438,10.3125 18.5,10.3125 C18.8854,10.3125 19.2552,10.2656 19.6094,10.1719 C19.9635,10.0781 20.3177,9.94271 20.6719,9.76562 L20.6719,10.6875 C20.3177,10.8438 19.9531,10.9609 19.5781,11.0391 C19.2031,11.1172 18.8281,11.1562 18.4531,11.1562 C17.4844,11.1562 16.7214,10.8776 16.1641,10.3203 C15.6068,9.76302 15.3281,9.00521 15.3281,8.04688 C15.3281,7.06771 15.5938,6.28906 16.125,5.71094 C16.6562,5.13281 17.375,4.84375 18.2812,4.84375 C19.0833,4.84375 19.7214,5.10417 20.1953,5.625 C20.6693,6.14583 20.9062,6.85417 20.9062,7.75 M19.9062,7.45312 C19.9062,6.91146 19.7578,6.47917 19.4609,6.15625 C19.1641,5.83333 18.7708,5.67188 18.2812,5.67188 C17.7292,5.67188 17.2891,5.82812 16.9609,6.14062 C16.6328,6.45312 16.4427,6.89062 16.3906,7.45312 L19.9062,7.45312 M23.4844,10.0938 L23.4844,13.2812 L22.4844,13.2812 L22.4844,4.98438 L23.4844,4.98438 L23.4844,5.89062 C23.6823,5.53646 23.9401,5.27344 24.2578,5.10156 C24.5755,4.92969 24.9583,4.84375 25.4062,4.84375 C26.1354,4.84375 26.7266,5.13281 27.1797,5.71094 C27.6328,6.28906 27.8594,7.05208 27.8594,8 C27.8594,8.94792 27.6328,9.71094 27.1797,10.2891 C26.7266,10.8672 26.1354,11.1562 25.4062,11.1562 C24.9583,11.1562 24.5755,11.0703 24.2578,10.8984 C23.9401,10.7266 23.6823,10.4583 23.4844,10.0938 M26.8438,8 C26.8438,7.27083 26.6927,6.70052 26.3906,6.28906 C26.0885,5.8776 25.6771,5.67188 25.1562,5.67188 C24.6354,5.67188 24.2266,5.8776 23.9297,6.28906 C23.6328,6.70052 23.4844,7.27083 23.4844,8 C23.4844,8.72917 23.6328,9.29948 23.9297,9.71094 C24.2266,10.1224 24.6354,10.3281 25.1562,10.3281 C25.6771,10.3281 26.0885,10.1224 26.3906,9.71094 C26.6927,9.29948 26.8438,8.72917 26.8438,8 "/>
</g>

<g fill="none" stroke="#000000" stroke-opacity="1" stroke-width="1" stroke-linecap="square" stroke-linejoin="bevel" transform="matrix(2,0,0,2,45.5469,85)"
font-family="sans" font-size="11" font-weight="100" font-style="normal" 
>
</g>

<g fill="none" stroke="#000000" stroke-opacity="1" stroke-width="1" stroke-linecap="square" stroke-linejoin="bevel" transform="matrix(2,0,0,2,45.5469,85)"
font-family="Ubuntu" font-size="11" font-weight="400" font-style="normal" 
>
</g>

<g fill="none" stroke="#000000" stroke-opacity="1" stroke-width="1" stroke-linecap="square" stroke-linejoin="bevel" transform="matrix(2,0,0,2,-15,221)"
font-family="Ubuntu" font-size="11" font-weight="400" font-style="normal" 
>
</g>

<g fill="none" stroke="#000000" stroke-opacity="1" stroke-width="1" stroke-linecap="square" stroke-linejoin="bevel" transform="matrix(2,0,0,2,-15,221)"
font-family="Ubuntu" font-size="11" font-weight="400" font-style="normal" 
>
</g>

<g fill="none" stroke="#000000" stroke-opacity="1" stroke-width="1" stroke-linecap="square" stroke-linejoin="bevel" transform="matrix(2,0,0,2,-15,221)"
font-family="Ubuntu" font-size="11" font-weight="400" font-style="normal" 
>
</g>

<g fill="none" stroke="#000000" stroke-opacity="1" stroke-width="1" stroke-linecap="square" stroke-linejoin="round" transform="matrix(2,0,0,2,-15,221)"
font-family="Ubuntu" font-size="11" font-weight="400" font-style="normal" 
>
<path vector-effect="none" fill-rule="evenodd" d="M553.184,-34 C553.184,-24.335 472.513,-16.5 373,-16.5 C273.487,-16.5 192.816,-24.335 192.816,-34 C192.816,-43.665 273.487,-51.5 373,-51.5 C472.513,-51.5 553.184,-43.665 553.184,-34 "/>
</g>

<g fill="none" stroke="#000000" stroke-opacity="1" stroke-width="1" stroke-linecap="square" stroke-linejoin="bevel" transform="matrix(2,0,0,2,-15,221)"
font-family="Ubuntu" font-size="11" font-weight="400" font-style="normal" 
>
</g>

<g fill="none" stroke="#000000" stroke-opacity="1" stroke-width="1" stroke-linecap="square" stroke-linejoin="bevel" transform="matrix(2,0,0,2,466.219,139)"
font-family="Ubuntu" font-size="11" font-weight="400" font-style="normal" 
>
</g>

<g fill="none" stroke="#000000" stroke-opacity="1" stroke-width="1" stroke-linecap="square" stroke-linejoin="bevel" transform="matrix(2,0,0,2,466.219,139)"
font-family="sans" font-size="11" font-weight="100" font-style="normal" 
>
</g>

<g fill="#000000" fill-opacity="1" stroke="#000000" stroke-opacity="1" stroke-width="1" stroke-linecap="square" stroke-linejoin="round" transform="matrix(2,0,0,2,466.219,139)"
font-family="sans" font-size="11" font-weight="100" font-style="normal" 
>
<path vector-effect="non-scaling-stroke" fill-rule="nonzero" d="M2.79688,2.98438 L3.70312,2.98438 L0.90625,12.0156 L0,12.0156 L2.79688,2.98438 M5.70312,10.0938 L5.70312,13.2812 L4.70312,13.2812 L4.70312,4.98438 L5.70312,4.98438 L5.70312,5.89062 C5.90104,5.53646 6.15885,5.27344 6.47656,5.10156 C6.79427,4.92969 7.17708,4.84375 7.625,4.84375 C8.35417,4.84375 8.94531,5.13281 9.39844,5.71094 C9.85156,6.28906 10.0781,7.05208 10.0781,8 C10.0781,8.94792 9.85156,9.71094 9.39844,10.2891 C8.94531,10.8672 8.35417,11.1562 7.625,11.1562 C7.17708,11.1562 6.79427,11.0703 6.47656,10.8984 C6.15885,10.7266 5.90104,10.4583 5.70312,10.0938 M9.0625,8 C9.0625,7.27083 8.91146,6.70052 8.60938,6.28906 C8.30729,5.8776 7.89583,5.67188 7.375,5.67188 C6.85417,5.67188 6.44531,5.8776 6.14844,6.28906 C5.85156,6.70052 5.70312,7.27083 5.70312,8 C5.70312,8.72917 5.85156,9.29948 6.14844,9.71094 C6.44531,10.1224 6.85417,10.3281 7.375,10.3281 C7.89583,10.3281 8.30729,10.1224 8.60938,9.71094 C8.91146,9.29948 9.0625,8.72917 9.0625,8 M14.0469,5.67188 C13.5156,5.67188 13.0964,5.88021 12.7891,6.29688 C12.4818,6.71354 12.3281,7.28125 12.3281,8 C12.3281,8.71875 12.4792,9.28385 12.7812,9.69531 C13.0833,10.1068 13.5052,10.3125 14.0469,10.3125 C14.5677,10.3125 14.9818,10.1068 15.2891,9.69531 C15.5964,9.28385 15.75,8.71875 15.75,8 C15.75,7.28125 15.5964,6.71354 15.2891,6.29688 C14.9818,5.88021 14.5677,5.67188 14.0469,5.67188 M14.0469,4.84375 C14.901,4.84375 15.5729,5.1224 16.0625,5.67969 C16.5521,6.23698 16.7969,7.01042 16.7969,8 C16.7969,8.97917 16.5521,9.75 16.0625,10.3125 C15.5729,10.875 14.901,11.1562 14.0469,11.1562 C13.1823,11.1562 12.5052,10.875 12.0156,10.3125 C11.526,9.75 11.2812,8.97917 11.2812,8 C11.2812,7.01042 11.526,6.23698 12.0156,5.67969 C12.5052,5.1224 13.1823,4.84375 14.0469,4.84375 M18.4219,4.98438 L19.4219,4.98438 L19.4219,11 L18.4219,11 L18.4219,4.98438 M18.4219,2.64062 L19.4219,2.64062 L19.4219,3.89062 L18.4219,3.89062 L18.4219,2.64062 M26.4688,7.375 L26.4688,11 L25.4844,11 L25.4844,7.40625 C25.4844,6.83333 25.375,6.40625 25.1562,6.125 C24.9375,5.84375 24.6042,5.70312 24.1562,5.70312 C23.625,5.70312 23.2057,5.8724 22.8984,6.21094 C22.5911,6.54948 22.4375,7.01042 22.4375,7.59375 L22.4375,11 L21.4375,11 L21.4375,4.98438 L22.4375,4.98438 L22.4375,5.92188 C22.6667,5.55729 22.9427,5.28646 23.2656,5.10938 C23.5885,4.93229 23.9583,4.84375 24.375,4.84375 C25.0625,4.84375 25.5833,5.05729 25.9375,5.48438 C26.2917,5.91146 26.4688,6.54167 26.4688,7.375 M29.4219,3.28125 L29.4219,4.98438 L31.4531,4.98438 L31.4531,5.75 L29.4219,5.75 L29.4219,9.01562 C29.4219,9.50521 29.4896,9.82031 29.625,9.96094 C29.7604,10.1016 30.0312,10.1719 30.4375,10.1719 L31.4531,10.1719 L31.4531,11 L30.4375,11 C29.6771,11 29.151,10.8568 28.8594,10.5703 C28.5677,10.2839 28.4219,9.76562 28.4219,9.01562 L28.4219,5.75 L27.7031,5.75 L27.7031,4.98438 L28.4219,4.98438 L28.4219,3.28125 L29.4219,3.28125 M37.3281,12.8281 L37.3281,13.5938 L31.6094,13.5938 L31.6094,12.8281 L37.3281,12.8281 M42.5781,5.21875 L42.5781,6.14062 C42.3073,5.98438 42.0312,5.86719 41.75,5.78906 C41.4688,5.71094 41.1823,5.67188 40.8906,5.67188 C40.2552,5.67188 39.7604,5.875 39.4062,6.28125 C39.0521,6.6875 38.875,7.26042 38.875,8 C38.875,8.72917 39.0521,9.29688 39.4062,9.70312 C39.7604,10.1094 40.2552,10.3125 40.8906,10.3125 C41.1823,10.3125 41.4688,10.276 41.75,10.2031 C42.0312,10.1302 42.3073,10.0156 42.5781,9.85938 L42.5781,10.7656 C42.3073,10.901 42.0234,11 41.7266,11.0625 C41.4297,11.125 41.1146,11.1562 40.7812,11.1562 C39.875,11.1562 39.1562,10.8724 38.625,10.3047 C38.0938,9.73698 37.8281,8.96875 37.8281,8 C37.8281,7.02083 38.0964,6.25 38.6328,5.6875 C39.1693,5.125 39.9062,4.84375 40.8438,4.84375 C41.1562,4.84375 41.4557,4.875 41.7422,4.9375 C42.0286,5 42.3073,5.09375 42.5781,5.21875 M44.2969,2.64062 L45.2969,2.64062 L45.2969,11 L44.2969,11 L44.2969,2.64062 M49.6875,5.67188 C49.1562,5.67188 48.737,5.88021 48.4297,6.29688 C48.1224,6.71354 47.9688,7.28125 47.9688,8 C47.9688,8.71875 48.1198,9.28385 48.4219,9.69531 C48.724,10.1068 49.1458,10.3125 49.6875,10.3125 C50.2083,10.3125 50.6224,10.1068 50.9297,9.69531 C51.237,9.28385 51.3906,8.71875 51.3906,8 C51.3906,7.28125 51.237,6.71354 50.9297,6.29688 C50.6224,5.88021 50.2083,5.67188 49.6875,5.67188 M49.6875,4.84375 C50.5417,4.84375 51.2135,5.1224 51.7031,5.67969 C52.1927,6.23698 52.4375,7.01042 52.4375,8 C52.4375,8.97917 52.1927,9.75 51.7031,10.3125 C51.2135,10.875 50.5417,11.1562 49.6875,11.1562 C48.8229,11.1562 48.1458,10.875 47.6562,10.3125 C47.1667,9.75 46.9219,8.97917 46.9219,8 C46.9219,7.01042 47.1667,6.23698 47.6562,5.67969 C48.1458,5.1224 48.8229,4.84375 49.6875,4.84375 M53.9688,8.625 L53.9688,4.98438 L54.9531,4.98438 L54.9531,8.59375 C54.9531,9.15625 55.0651,9.58073 55.2891,9.86719 C55.513,10.1536 55.8438,10.2969 56.2812,10.2969 C56.8229,10.2969 57.2474,10.1276 57.5547,9.78906 C57.862,9.45052 58.0156,8.98438 58.0156,8.39062 L58.0156,4.98438 L59,4.98438 L59,11 L58.0156,11 L58.0156,10.0781 C57.776,10.4427 57.4974,10.7135 57.1797,10.8906 C56.862,11.0677 56.4948,11.1562 56.0781,11.1562 C55.3906,11.1562 54.8672,10.9401 54.5078,10.5078 C54.1484,10.0755 53.9688,9.44792 53.9688,8.625 M65,5.89062 L65,2.64062 L65.9844,2.64062 L65.9844,11 L65,11 L65,10.0938 C64.7917,10.4583 64.5286,10.7266 64.2109,10.8984 C63.8932,11.0703 63.5104,11.1562 63.0625,11.1562 C62.3438,11.1562 61.7552,10.8672 61.2969,10.2891 C60.8385,9.71094 60.6094,8.94792 60.6094,8 C60.6094,7.05208 60.8385,6.28906 61.2969,5.71094 C61.7552,5.13281 62.3438,4.84375 63.0625,4.84375 C63.5104,4.84375 63.8932,4.92969 64.2109,5.10156 C64.5286,5.27344 64.7917,5.53646 65,5.89062 M61.625,8 C61.625,8.72917 61.776,9.29948 62.0781,9.71094 C62.3802,10.1224 62.7917,10.3281 63.3125,10.3281 C63.8333,10.3281 64.2448,10.1224 64.5469,9.71094 C64.849,9.29948 65,8.72917 65,8 C65,7.27083 64.849,6.70052 64.5469,6.28906 C64.2448,5.8776 63.8333,5.67188 63.3125,5.67188 C62.7917,5.67188 62.3802,5.8776 62.0781,6.28906 C61.776,6.70052 61.625,7.27083 61.625,8 M72.5781,12.8281 L72.5781,13.5938 L66.8594,13.5938 L66.8594,12.8281 L72.5781,12.8281 M77.8281,5.21875 L77.8281,6.14062 C77.5573,5.98438 77.2812,5.86719 77,5.78906 C76.7188,5.71094 76.4323,5.67188 76.1406,5.67188 C75.5052,5.67188 75.0104,5.875 74.6562,6.28125 C74.3021,6.6875 74.125,7.26042 74.125,8 C74.125,8.72917 74.3021,9.29688 74.6562,9.70312 C75.0104,10.1094 75.5052,10.3125 76.1406,10.3125 C76.4323,10.3125 76.7188,10.276 77,10.2031 C77.2812,10.1302 77.5573,10.0156 77.8281,9.85938 L77.8281,10.7656 C77.5573,10.901 77.2734,11 76.9766,11.0625 C76.6797,11.125 76.3646,11.1562 76.0312,11.1562 C75.125,11.1562 74.4062,10.8724 73.875,10.3047 C73.3438,9.73698 73.0781,8.96875 73.0781,8 C73.0781,7.02083 73.3464,6.25 73.8828,5.6875 C74.4193,5.125 75.1562,4.84375 76.0938,4.84375 C76.4062,4.84375 76.7057,4.875 76.9922,4.9375 C77.2786,5 77.5573,5.09375 77.8281,5.21875 M81.8906,5.67188 C81.3594,5.67188 80.9401,5.88021 80.6328,6.29688 C80.3255,6.71354 80.1719,7.28125 80.1719,8 C80.1719,8.71875 80.3229,9.28385 80.625,9.69531 C80.9271,10.1068 81.349,10.3125 81.8906,10.3125 C82.4115,10.3125 82.8255,10.1068 83.1328,9.69531 C83.4401,9.28385 83.5938,8.71875 83.5938,8 C83.5938,7.28125 83.4401,6.71354 83.1328,6.29688 C82.8255,5.88021 82.4115,5.67188 81.8906,5.67188 M81.8906,4.84375 C82.7448,4.84375 83.4167,5.1224 83.9062,5.67969 C84.3958,6.23698 84.6406,7.01042 84.6406,8 C84.6406,8.97917 84.3958,9.75 83.9062,10.3125 C83.4167,10.875 82.7448,11.1562 81.8906,11.1562 C81.026,11.1562 80.349,10.875 79.8594,10.3125 C79.3698,9.75 79.125,8.97917 79.125,8 C79.125,7.01042 79.3698,6.23698 79.8594,5.67969 C80.349,5.1224 81.026,4.84375 81.8906,4.84375 M91.2656,7.375 L91.2656,11 L90.2812,11 L90.2812,7.40625 C90.2812,6.83333 90.1719,6.40625 89.9531,6.125 C89.7344,5.84375 89.401,5.70312 88.9531,5.70312 C88.4219,5.70312 88.0026,5.8724 87.6953,6.21094 C87.388,6.54948 87.2344,7.01042 87.2344,7.59375 L87.2344,11 L86.2344,11 L86.2344,4.98438 L87.2344,4.98438 L87.2344,5.92188 C87.4635,5.55729 87.7396,5.28646 88.0625,5.10938 C88.3854,4.93229 88.7552,4.84375 89.1719,4.84375 C89.8594,4.84375 90.3802,5.05729 90.7344,5.48438 C91.0885,5.91146 91.2656,6.54167 91.2656,7.375 M92.5312,4.98438 L93.5781,4.98438 L95.4531,10.0312 L97.3438,4.98438 L98.3906,4.98438 L96.125,11 L94.7812,11 L92.5312,4.98438 M104.891,7.75 L104.891,8.23438 L100.344,8.23438 C100.385,8.91146 100.589,9.42708 100.953,9.78125 C101.318,10.1354 101.828,10.3125 102.484,10.3125 C102.87,10.3125 103.24,10.2656 103.594,10.1719 C103.948,10.0781 104.302,9.94271 104.656,9.76562 L104.656,10.6875 C104.302,10.8438 103.938,10.9609 103.562,11.0391 C103.188,11.1172 102.812,11.1562 102.438,11.1562 C101.469,11.1562 100.706,10.8776 100.148,10.3203 C99.5911,9.76302 99.3125,9.00521 99.3125,8.04688 C99.3125,7.06771 99.5781,6.28906 100.109,5.71094 C100.641,5.13281 101.359,4.84375 102.266,4.84375 C103.068,4.84375 103.706,5.10417 104.18,5.625 C104.654,6.14583 104.891,6.85417 104.891,7.75 M103.891,7.45312 C103.891,6.91146 103.742,6.47917 103.445,6.15625 C103.148,5.83333 102.755,5.67188 102.266,5.67188 C101.714,5.67188 101.273,5.82812 100.945,6.14062 C100.617,6.45312 100.427,6.89062 100.375,7.45312 L103.891,7.45312 M109.984,5.90625 C109.88,5.84375 109.763,5.79688 109.633,5.76562 C109.503,5.73438 109.359,5.71875 109.203,5.71875 C108.641,5.71875 108.211,5.90104 107.914,6.26562 C107.617,6.63021 107.469,7.15104 107.469,7.82812 L107.469,11 L106.469,11 L106.469,4.98438 L107.469,4.98438 L107.469,5.92188 C107.667,5.55729 107.932,5.28646 108.266,5.10938 C108.599,4.93229 109.005,4.84375 109.484,4.84375 C109.557,4.84375 109.633,4.84635 109.711,4.85156 C109.789,4.85677 109.88,4.86979 109.984,4.89062 L109.984,5.90625 M112,3.28125 L112,4.98438 L114.031,4.98438 L114.031,5.75 L112,5.75 L112,9.01562 C112,9.50521 112.068,9.82031 112.203,9.96094 C112.339,10.1016 112.609,10.1719 113.016,10.1719 L114.031,10.1719 L114.031,11 L113.016,11 C112.255,11 111.729,10.8568 111.438,10.5703 C111.146,10.2839 111,9.76562 111,9.01562 L111,5.75 L110.281,5.75 L110.281,4.98438 L111,4.98438 L111,3.28125 L112,3.28125 M120.484,7.75 L120.484,8.23438 L115.938,8.23438 C115.979,8.91146 116.182,9.42708 116.547,9.78125 C116.911,10.1354 117.422,10.3125 118.078,10.3125 C118.464,10.3125 118.833,10.2656 119.188,10.1719 C119.542,10.0781 119.896,9.94271 120.25,9.76562 L120.25,10.6875 C119.896,10.8438 119.531,10.9609 119.156,11.0391 C118.781,11.1172 118.406,11.1562 118.031,11.1562 C117.062,11.1562 116.299,10.8776 115.742,10.3203 C115.185,9.76302 114.906,9.00521 114.906,8.04688 C114.906,7.06771 115.172,6.28906 115.703,5.71094 C116.234,5.13281 116.953,4.84375 117.859,4.84375 C118.661,4.84375 119.299,5.10417 119.773,5.625 C120.247,6.14583 120.484,6.85417 120.484,7.75 M119.484,7.45312 C119.484,6.91146 119.336,6.47917 119.039,6.15625 C118.742,5.83333 118.349,5.67188 117.859,5.67188 C117.307,5.67188 116.867,5.82812 116.539,6.14062 C116.211,6.45312 116.021,6.89062 115.969,7.45312 L119.484,7.45312 M125.578,5.90625 C125.474,5.84375 125.357,5.79688 125.227,5.76562 C125.096,5.73438 124.953,5.71875 124.797,5.71875 C124.234,5.71875 123.805,5.90104 123.508,6.26562 C123.211,6.63021 123.062,7.15104 123.062,7.82812 L123.062,11 L122.062,11 L122.062,4.98438 L123.062,4.98438 L123.062,5.92188 C123.26,5.55729 123.526,5.28646 123.859,5.10938 C124.193,4.93229 124.599,4.84375 125.078,4.84375 C125.151,4.84375 125.227,4.84635 125.305,4.85156 C125.383,4.85677 125.474,4.86979 125.578,4.89062 L125.578,5.90625 M131.188,12.8281 L131.188,13.5938 L125.469,13.5938 L125.469,12.8281 L131.188,12.8281 M132.438,10.0938 L134.219,10.0938 L134.219,3.96875 L132.281,4.35938 L132.281,3.375 L134.203,2.98438 L135.297,2.98438 L135.297,10.0938 L137.062,10.0938 L137.062,11 L132.438,11 L132.438,10.0938 M139.25,2.98438 L143.516,2.98438 L143.516,3.89062 L140.25,3.89062 L140.25,5.85938 C140.406,5.80729 140.562,5.76823 140.719,5.74219 C140.875,5.71615 141.031,5.70312 141.188,5.70312 C142.083,5.70312 142.792,5.94792 143.312,6.4375 C143.833,6.92708 144.094,7.58854 144.094,8.42188 C144.094,9.28646 143.826,9.95833 143.289,10.4375 C142.753,10.9167 141.995,11.1562 141.016,11.1562 C140.682,11.1562 140.341,11.1276 139.992,11.0703 C139.643,11.013 139.281,10.9271 138.906,10.8125 L138.906,9.71875 C139.229,9.89583 139.562,10.0286 139.906,10.1172 C140.25,10.2057 140.615,10.25 141,10.25 C141.625,10.25 142.117,10.0859 142.477,9.75781 C142.836,9.42969 143.016,8.98438 143.016,8.42188 C143.016,7.86979 142.836,7.42969 142.477,7.10156 C142.117,6.77344 141.625,6.60938 141,6.60938 C140.708,6.60938 140.419,6.64323 140.133,6.71094 C139.846,6.77865 139.552,6.88021 139.25,7.01562 L139.25,2.98438 M148.547,3.6875 C147.984,3.6875 147.562,3.96354 147.281,4.51562 C147,5.06771 146.859,5.89583 146.859,7 C146.859,8.09375 147,8.91667 147.281,9.46875 C147.562,10.0208 147.984,10.2969 148.547,10.2969 C149.109,10.2969 149.531,10.0208 149.812,9.46875 C150.094,8.91667 150.234,8.09375 150.234,7 C150.234,5.89583 150.094,5.06771 149.812,4.51562 C149.531,3.96354 149.109,3.6875 148.547,3.6875 M148.547,2.82812 C149.443,2.82812 150.128,3.1849 150.602,3.89844 C151.076,4.61198 151.312,5.64583 151.312,7 C151.312,8.34375 151.076,9.3724 150.602,10.0859 C150.128,10.7995 149.443,11.1562 148.547,11.1562 C147.651,11.1562 146.964,10.7995 146.484,10.0859 C146.005,9.3724 145.766,8.34375 145.766,7 C145.766,5.64583 146.005,4.61198 146.484,3.89844 C146.964,3.1849 147.651,2.82812 148.547,2.82812 M153.219,2.98438 L157.484,2.98438 L157.484,3.89062 L154.219,3.89062 L154.219,5.85938 C154.375,5.80729 154.531,5.76823 154.688,5.74219 C154.844,5.71615 155,5.70312 155.156,5.70312 C156.052,5.70312 156.76,5.94792 157.281,6.4375 C157.802,6.92708 158.062,7.58854 158.062,8.42188 C158.062,9.28646 157.794,9.95833 157.258,10.4375 C156.721,10.9167 155.964,11.1562 154.984,11.1562 C154.651,11.1562 154.31,11.1276 153.961,11.0703 C153.612,11.013 153.25,10.9271 152.875,10.8125 L152.875,9.71875 C153.198,9.89583 153.531,10.0286 153.875,10.1172 C154.219,10.2057 154.583,10.25 154.969,10.25 C155.594,10.25 156.086,10.0859 156.445,9.75781 C156.805,9.42969 156.984,8.98438 156.984,8.42188 C156.984,7.86979 156.805,7.42969 156.445,7.10156 C156.086,6.77344 155.594,6.60938 154.969,6.60938 C154.677,6.60938 154.388,6.64323 154.102,6.71094 C153.815,6.77865 153.521,6.88021 153.219,7.01562 L153.219,2.98438 M162.516,7.1875 C161.995,7.1875 161.589,7.32552 161.297,7.60156 C161.005,7.8776 160.859,8.26042 160.859,8.75 C160.859,9.22917 161.005,9.60677 161.297,9.88281 C161.589,10.1589 161.995,10.2969 162.516,10.2969 C163.026,10.2969 163.43,10.1589 163.727,9.88281 C164.023,9.60677 164.172,9.22917 164.172,8.75 C164.172,8.26042 164.026,7.8776 163.734,7.60156 C163.443,7.32552 163.036,7.1875 162.516,7.1875 M161.422,6.73438 C160.964,6.61979 160.604,6.40365 160.344,6.08594 C160.083,5.76823 159.953,5.38021 159.953,4.92188 C159.953,4.27604 160.18,3.76562 160.633,3.39062 C161.086,3.01562 161.714,2.82812 162.516,2.82812 C163.307,2.82812 163.932,3.01562 164.391,3.39062 C164.849,3.76562 165.078,4.27604 165.078,4.92188 C165.078,5.38021 164.948,5.76823 164.688,6.08594 C164.427,6.40365 164.068,6.61979 163.609,6.73438 C164.13,6.84896 164.536,7.08333 164.828,7.4375 C165.12,7.79167 165.266,8.22917 165.266,8.75 C165.266,9.52083 165.029,10.1146 164.555,10.5312 C164.081,10.9479 163.401,11.1562 162.516,11.1562 C161.63,11.1562 160.951,10.9479 160.477,10.5312 C160.003,10.1146 159.766,9.52083 159.766,8.75 C159.766,8.22917 159.911,7.79167 160.203,7.4375 C160.495,7.08333 160.901,6.84896 161.422,6.73438 M161.031,5.01562 C161.031,5.43229 161.161,5.75781 161.422,5.99219 C161.682,6.22656 162.047,6.34375 162.516,6.34375 C162.974,6.34375 163.336,6.22656 163.602,5.99219 C163.867,5.75781 164,5.43229 164,5.01562 C164,4.59896 163.867,4.27344 163.602,4.03906 C163.336,3.80469 162.974,3.6875 162.516,3.6875 C162.047,3.6875 161.682,3.80469 161.422,4.03906 C161.161,4.27344 161.031,4.59896 161.031,5.01562 M167.188,2.98438 L171.453,2.98438 L171.453,3.89062 L168.188,3.89062 L168.188,5.85938 C168.344,5.80729 168.5,5.76823 168.656,5.74219 C168.812,5.71615 168.969,5.70312 169.125,5.70312 C170.021,5.70312 170.729,5.94792 171.25,6.4375 C171.771,6.92708 172.031,7.58854 172.031,8.42188 C172.031,9.28646 171.763,9.95833 171.227,10.4375 C170.69,10.9167 169.932,11.1562 168.953,11.1562 C168.62,11.1562 168.279,11.1276 167.93,11.0703 C167.581,11.013 167.219,10.9271 166.844,10.8125 L166.844,9.71875 C167.167,9.89583 167.5,10.0286 167.844,10.1172 C168.188,10.2057 168.552,10.25 168.938,10.25 C169.562,10.25 170.055,10.0859 170.414,9.75781 C170.773,9.42969 170.953,8.98438 170.953,8.42188 C170.953,7.86979 170.773,7.42969 170.414,7.10156 C170.055,6.77344 169.562,6.60938 168.938,6.60938 C168.646,6.60938 168.357,6.64323 168.07,6.71094 C167.784,6.77865 167.49,6.88021 167.188,7.01562 L167.188,2.98438 M174.172,2.98438 L178.438,2.98438 L178.438,3.89062 L175.172,3.89062 L175.172,5.85938 C175.328,5.80729 175.484,5.76823 175.641,5.74219 C175.797,5.71615 175.953,5.70312 176.109,5.70312 C177.005,5.70312 177.714,5.94792 178.234,6.4375 C178.755,6.92708 179.016,7.58854 179.016,8.42188 C179.016,9.28646 178.747,9.95833 178.211,10.4375 C177.674,10.9167 176.917,11.1562 175.938,11.1562 C175.604,11.1562 175.263,11.1276 174.914,11.0703 C174.565,11.013 174.203,10.9271 173.828,10.8125 L173.828,9.71875 C174.151,9.89583 174.484,10.0286 174.828,10.1172 C175.172,10.2057 175.536,10.25 175.922,10.25 C176.547,10.25 177.039,10.0859 177.398,9.75781 C177.758,9.42969 177.938,8.98438 177.938,8.42188 C177.938,7.86979 177.758,7.42969 177.398,7.10156 C177.039,6.77344 176.547,6.60938 175.922,6.60938 C175.63,6.60938 175.341,6.64323 175.055,6.71094 C174.768,6.77865 174.474,6.88021 174.172,7.01562 L174.172,2.98438 M183.469,7.1875 C182.948,7.1875 182.542,7.32552 182.25,7.60156 C181.958,7.8776 181.812,8.26042 181.812,8.75 C181.812,9.22917 181.958,9.60677 182.25,9.88281 C182.542,10.1589 182.948,10.2969 183.469,10.2969 C183.979,10.2969 184.383,10.1589 184.68,9.88281 C184.977,9.60677 185.125,9.22917 185.125,8.75 C185.125,8.26042 184.979,7.8776 184.688,7.60156 C184.396,7.32552 183.99,7.1875 183.469,7.1875 M182.375,6.73438 C181.917,6.61979 181.557,6.40365 181.297,6.08594 C181.036,5.76823 180.906,5.38021 180.906,4.92188 C180.906,4.27604 181.133,3.76562 181.586,3.39062 C182.039,3.01562 182.667,2.82812 183.469,2.82812 C184.26,2.82812 184.885,3.01562 185.344,3.39062 C185.802,3.76562 186.031,4.27604 186.031,4.92188 C186.031,5.38021 185.901,5.76823 185.641,6.08594 C185.38,6.40365 185.021,6.61979 184.562,6.73438 C185.083,6.84896 185.49,7.08333 185.781,7.4375 C186.073,7.79167 186.219,8.22917 186.219,8.75 C186.219,9.52083 185.982,10.1146 185.508,10.5312 C185.034,10.9479 184.354,11.1562 183.469,11.1562 C182.583,11.1562 181.904,10.9479 181.43,10.5312 C180.956,10.1146 180.719,9.52083 180.719,8.75 C180.719,8.22917 180.865,7.79167 181.156,7.4375 C181.448,7.08333 181.854,6.84896 182.375,6.73438 M181.984,5.01562 C181.984,5.43229 182.115,5.75781 182.375,5.99219 C182.635,6.22656 183,6.34375 183.469,6.34375 C183.927,6.34375 184.289,6.22656 184.555,5.99219 C184.82,5.75781 184.953,5.43229 184.953,5.01562 C184.953,4.59896 184.82,4.27344 184.555,4.03906 C184.289,3.80469 183.927,3.6875 183.469,3.6875 C183,3.6875 182.635,3.80469 182.375,4.03906 C182.115,4.27344 181.984,4.59896 181.984,5.01562 M189.062,10.0938 L192.844,10.0938 L192.844,11 L187.766,11 L187.766,10.0938 C188.172,9.66667 188.732,9.09375 189.445,8.375 C190.159,7.65625 190.604,7.19271 190.781,6.98438 C191.125,6.58854 191.367,6.25521 191.508,5.98438 C191.648,5.71354 191.719,5.44792 191.719,5.1875 C191.719,4.76042 191.57,4.41406 191.273,4.14844 C190.977,3.88281 190.583,3.75 190.094,3.75 C189.76,3.75 189.404,3.8099 189.023,3.92969 C188.643,4.04948 188.24,4.22917 187.812,4.46875 L187.812,3.375 C188.25,3.19792 188.659,3.0625 189.039,2.96875 C189.419,2.875 189.766,2.82812 190.078,2.82812 C190.911,2.82812 191.576,3.03646 192.07,3.45312 C192.565,3.86979 192.812,4.42708 192.812,5.125 C192.812,5.45833 192.75,5.77083 192.625,6.0625 C192.5,6.35417 192.276,6.70312 191.953,7.10938 C191.859,7.21354 191.573,7.51302 191.094,8.00781 C190.615,8.5026 189.938,9.19792 189.062,10.0938 M195.141,10.8281 L195.141,9.84375 C195.411,9.96875 195.688,10.0677 195.969,10.1406 C196.25,10.2135 196.526,10.25 196.797,10.25 C197.516,10.25 198.062,10.0078 198.438,9.52344 C198.812,9.03906 199.026,8.30729 199.078,7.32812 C198.87,7.63021 198.607,7.86458 198.289,8.03125 C197.971,8.19792 197.62,8.28125 197.234,8.28125 C196.432,8.28125 195.797,8.03906 195.328,7.55469 C194.859,7.07031 194.625,6.40625 194.625,5.5625 C194.625,4.73958 194.87,4.07812 195.359,3.57812 C195.849,3.07812 196.5,2.82812 197.312,2.82812 C198.24,2.82812 198.945,3.1849 199.43,3.89844 C199.914,4.61198 200.156,5.64583 200.156,7 C200.156,8.26042 199.857,9.26823 199.258,10.0234 C198.659,10.7786 197.854,11.1562 196.844,11.1562 C196.573,11.1562 196.297,11.1302 196.016,11.0781 C195.734,11.026 195.443,10.9427 195.141,10.8281 M197.312,7.4375 C197.792,7.4375 198.174,7.27083 198.461,6.9375 C198.747,6.60417 198.891,6.14583 198.891,5.5625 C198.891,4.98958 198.747,4.53385 198.461,4.19531 C198.174,3.85677 197.792,3.6875 197.312,3.6875 C196.823,3.6875 196.435,3.85677 196.148,4.19531 C195.862,4.53385 195.719,4.98958 195.719,5.5625 C195.719,6.14583 195.862,6.60417 196.148,6.9375 C196.435,7.27083 196.823,7.4375 197.312,7.4375 M204.422,7.1875 C203.901,7.1875 203.495,7.32552 203.203,7.60156 C202.911,7.8776 202.766,8.26042 202.766,8.75 C202.766,9.22917 202.911,9.60677 203.203,9.88281 C203.495,10.1589 203.901,10.2969 204.422,10.2969 C204.932,10.2969 205.336,10.1589 205.633,9.88281 C205.93,9.60677 206.078,9.22917 206.078,8.75 C206.078,8.26042 205.932,7.8776 205.641,7.60156 C205.349,7.32552 204.943,7.1875 204.422,7.1875 M203.328,6.73438 C202.87,6.61979 202.51,6.40365 202.25,6.08594 C201.99,5.76823 201.859,5.38021 201.859,4.92188 C201.859,4.27604 202.086,3.76562 202.539,3.39062 C202.992,3.01562 203.62,2.82812 204.422,2.82812 C205.214,2.82812 205.839,3.01562 206.297,3.39062 C206.755,3.76562 206.984,4.27604 206.984,4.92188 C206.984,5.38021 206.854,5.76823 206.594,6.08594 C206.333,6.40365 205.974,6.61979 205.516,6.73438 C206.036,6.84896 206.443,7.08333 206.734,7.4375 C207.026,7.79167 207.172,8.22917 207.172,8.75 C207.172,9.52083 206.935,10.1146 206.461,10.5312 C205.987,10.9479 205.307,11.1562 204.422,11.1562 C203.536,11.1562 202.857,10.9479 202.383,10.5312 C201.909,10.1146 201.672,9.52083 201.672,8.75 C201.672,8.22917 201.818,7.79167 202.109,7.4375 C202.401,7.08333 202.807,6.84896 203.328,6.73438 M202.938,5.01562 C202.938,5.43229 203.068,5.75781 203.328,5.99219 C203.589,6.22656 203.953,6.34375 204.422,6.34375 C204.88,6.34375 205.242,6.22656 205.508,5.99219 C205.773,5.75781 205.906,5.43229 205.906,5.01562 C205.906,4.59896 205.773,4.27344 205.508,4.03906 C205.242,3.80469 204.88,3.6875 204.422,3.6875 C203.953,3.6875 203.589,3.80469 203.328,4.03906 C203.068,4.27344 202.938,4.59896 202.938,5.01562 M209.266,10.0938 L211.047,10.0938 L211.047,3.96875 L209.109,4.35938 L209.109,3.375 L211.031,2.98438 L212.125,2.98438 L212.125,10.0938 L213.891,10.0938 L213.891,11 L209.266,11 L209.266,10.0938 M218.391,3.6875 C217.828,3.6875 217.406,3.96354 217.125,4.51562 C216.844,5.06771 216.703,5.89583 216.703,7 C216.703,8.09375 216.844,8.91667 217.125,9.46875 C217.406,10.0208 217.828,10.2969 218.391,10.2969 C218.953,10.2969 219.375,10.0208 219.656,9.46875 C219.938,8.91667 220.078,8.09375 220.078,7 C220.078,5.89583 219.938,5.06771 219.656,4.51562 C219.375,3.96354 218.953,3.6875 218.391,3.6875 M218.391,2.82812 C219.286,2.82812 219.971,3.1849 220.445,3.89844 C220.919,4.61198 221.156,5.64583 221.156,7 C221.156,8.34375 220.919,9.3724 220.445,10.0859 C219.971,10.7995 219.286,11.1562 218.391,11.1562 C217.495,11.1562 216.807,10.7995 216.328,10.0859 C215.849,9.3724 215.609,8.34375 215.609,7 C215.609,5.64583 215.849,4.61198 216.328,3.89844 C216.807,3.1849 217.495,2.82812 218.391,2.82812 M226.031,3.92188 L223.297,8.20312 L226.031,8.20312 L226.031,3.92188 M225.75,2.98438 L227.109,2.98438 L227.109,8.20312 L228.25,8.20312 L228.25,9.10938 L227.109,9.10938 L227.109,11 L226.031,11 L226.031,9.10938 L222.406,9.10938 L222.406,8.0625 L225.75,2.98438 M230.969,10.0938 L234.75,10.0938 L234.75,11 L229.672,11 L229.672,10.0938 C230.078,9.66667 230.638,9.09375 231.352,8.375 C232.065,7.65625 232.51,7.19271 232.688,6.98438 C233.031,6.58854 233.273,6.25521 233.414,5.98438 C233.555,5.71354 233.625,5.44792 233.625,5.1875 C233.625,4.76042 233.477,4.41406 233.18,4.14844 C232.883,3.88281 232.49,3.75 232,3.75 C231.667,3.75 231.31,3.8099 230.93,3.92969 C230.549,4.04948 230.146,4.22917 229.719,4.46875 L229.719,3.375 C230.156,3.19792 230.565,3.0625 230.945,2.96875 C231.326,2.875 231.672,2.82812 231.984,2.82812 C232.818,2.82812 233.482,3.03646 233.977,3.45312 C234.471,3.86979 234.719,4.42708 234.719,5.125 C234.719,5.45833 234.656,5.77083 234.531,6.0625 C234.406,6.35417 234.182,6.70312 233.859,7.10938 C233.766,7.21354 233.479,7.51302 233,8.00781 C232.521,8.5026 231.844,9.19792 230.969,10.0938 M237.031,2.98438 L241.297,2.98438 L241.297,3.89062 L238.031,3.89062 L238.031,5.85938 C238.188,5.80729 238.344,5.76823 238.5,5.74219 C238.656,5.71615 238.812,5.70312 238.969,5.70312 C239.865,5.70312 240.573,5.94792 241.094,6.4375 C241.615,6.92708 241.875,7.58854 241.875,8.42188 C241.875,9.28646 241.607,9.95833 241.07,10.4375 C240.534,10.9167 239.776,11.1562 238.797,11.1562 C238.464,11.1562 238.122,11.1276 237.773,11.0703 C237.424,11.013 237.062,10.9271 236.688,10.8125 L236.688,9.71875 C237.01,9.89583 237.344,10.0286 237.688,10.1172 C238.031,10.2057 238.396,10.25 238.781,10.25 C239.406,10.25 239.898,10.0859 240.258,9.75781 C240.617,9.42969 240.797,8.98438 240.797,8.42188 C240.797,7.86979 240.617,7.42969 240.258,7.10156 C239.898,6.77344 239.406,6.60938 238.781,6.60938 C238.49,6.60938 238.201,6.64323 237.914,6.71094 C237.628,6.77865 237.333,6.88021 237.031,7.01562 L237.031,2.98438 M246.328,7.1875 C245.807,7.1875 245.401,7.32552 245.109,7.60156 C244.818,7.8776 244.672,8.26042 244.672,8.75 C244.672,9.22917 244.818,9.60677 245.109,9.88281 C245.401,10.1589 245.807,10.2969 246.328,10.2969 C246.839,10.2969 247.242,10.1589 247.539,9.88281 C247.836,9.60677 247.984,9.22917 247.984,8.75 C247.984,8.26042 247.839,7.8776 247.547,7.60156 C247.255,7.32552 246.849,7.1875 246.328,7.1875 M245.234,6.73438 C244.776,6.61979 244.417,6.40365 244.156,6.08594 C243.896,5.76823 243.766,5.38021 243.766,4.92188 C243.766,4.27604 243.992,3.76562 244.445,3.39062 C244.898,3.01562 245.526,2.82812 246.328,2.82812 C247.12,2.82812 247.745,3.01562 248.203,3.39062 C248.661,3.76562 248.891,4.27604 248.891,4.92188 C248.891,5.38021 248.76,5.76823 248.5,6.08594 C248.24,6.40365 247.88,6.61979 247.422,6.73438 C247.943,6.84896 248.349,7.08333 248.641,7.4375 C248.932,7.79167 249.078,8.22917 249.078,8.75 C249.078,9.52083 248.841,10.1146 248.367,10.5312 C247.893,10.9479 247.214,11.1562 246.328,11.1562 C245.443,11.1562 244.763,10.9479 244.289,10.5312 C243.815,10.1146 243.578,9.52083 243.578,8.75 C243.578,8.22917 243.724,7.79167 244.016,7.4375 C244.307,7.08333 244.714,6.84896 245.234,6.73438 M244.844,5.01562 C244.844,5.43229 244.974,5.75781 245.234,5.99219 C245.495,6.22656 245.859,6.34375 246.328,6.34375 C246.786,6.34375 247.148,6.22656 247.414,5.99219 C247.68,5.75781 247.812,5.43229 247.812,5.01562 C247.812,4.59896 247.68,4.27344 247.414,4.03906 C247.148,3.80469 246.786,3.6875 246.328,3.6875 C245.859,3.6875 245.495,3.80469 245.234,4.03906 C244.974,4.27344 244.844,4.59896 244.844,5.01562 M254.281,6.67188 C254.802,6.78646 255.208,7.01823 255.5,7.36719 C255.792,7.71615 255.938,8.15104 255.938,8.67188 C255.938,9.46354 255.664,10.0755 255.117,10.5078 C254.57,10.9401 253.797,11.1562 252.797,11.1562 C252.453,11.1562 252.104,11.1224 251.75,11.0547 C251.396,10.987 251.031,10.8906 250.656,10.7656 L250.656,9.70312 C250.958,9.88021 251.286,10.0156 251.641,10.1094 C251.995,10.2031 252.37,10.25 252.766,10.25 C253.443,10.25 253.958,10.1146 254.312,9.84375 C254.667,9.57292 254.844,9.18229 254.844,8.67188 C254.844,8.19271 254.68,7.82031 254.352,7.55469 C254.023,7.28906 253.562,7.15625 252.969,7.15625 L252.031,7.15625 L252.031,6.26562 L253.016,6.26562 C253.547,6.26562 253.953,6.15885 254.234,5.94531 C254.516,5.73177 254.656,5.42708 254.656,5.03125 C254.656,4.61458 254.51,4.29688 254.219,4.07812 C253.927,3.85938 253.51,3.75 252.969,3.75 C252.677,3.75 252.359,3.78125 252.016,3.84375 C251.672,3.90625 251.297,4.00521 250.891,4.14062 L250.891,3.17188 C251.307,3.05729 251.695,2.97135 252.055,2.91406 C252.414,2.85677 252.75,2.82812 253.062,2.82812 C253.885,2.82812 254.539,3.01562 255.023,3.39062 C255.508,3.76562 255.75,4.27604 255.75,4.92188 C255.75,5.35938 255.622,5.73177 255.367,6.03906 C255.112,6.34635 254.75,6.55729 254.281,6.67188 M257.984,2.98438 L262.25,2.98438 L262.25,3.89062 L258.984,3.89062 L258.984,5.85938 C259.141,5.80729 259.297,5.76823 259.453,5.74219 C259.609,5.71615 259.766,5.70312 259.922,5.70312 C260.818,5.70312 261.526,5.94792 262.047,6.4375 C262.568,6.92708 262.828,7.58854 262.828,8.42188 C262.828,9.28646 262.56,9.95833 262.023,10.4375 C261.487,10.9167 260.729,11.1562 259.75,11.1562 C259.417,11.1562 259.076,11.1276 258.727,11.0703 C258.378,11.013 258.016,10.9271 257.641,10.8125 L257.641,9.71875 C257.964,9.89583 258.297,10.0286 258.641,10.1172 C258.984,10.2057 259.349,10.25 259.734,10.25 C260.359,10.25 260.852,10.0859 261.211,9.75781 C261.57,9.42969 261.75,8.98438 261.75,8.42188 C261.75,7.86979 261.57,7.42969 261.211,7.10156 C260.852,6.77344 260.359,6.60938 259.734,6.60938 C259.443,6.60938 259.154,6.64323 258.867,6.71094 C258.581,6.77865 258.286,6.88021 257.984,7.01562 L257.984,2.98438"/>
</g>

<g fill="none" stroke="#000000" stroke-opacity="1" stroke-width="1" stroke-linecap="square" stroke-linejoin="bevel" transform="matrix(2,0,0,2,466.219,139)"
font-family="sans" font-size="11" font-weight="100" font-style="normal" 
>
</g>

<g fill="none" stroke="#000000" stroke-opacity="1" stroke-width="1" stroke-linecap="square" stroke-linejoin="bevel" transform="matrix(2,0,0,2,466.219,139)"
font-family="Ubuntu" font-size="11" font-weight="400" font-style="normal" 
>
</g>

<g fill="none" stroke="#000000" stroke-opacity="1" stroke-width="1" stroke-linecap="square" stroke-linejoin="bevel" transform="matrix(2,0,0,2,-15,221)"
font-family="Ubuntu" font-size="11" font-weight="400" font-style="normal" 
>
</g>

<g fill="none" stroke="#000000" stroke-opacity="1" stroke-width="1" stroke-linecap="square" stroke-linejoin="bevel" transform="matrix(2,0,0,2,-15,221)"
font-family="Ubuntu" font-size="11" font-weight="400" font-style="normal" 
>
</g>

<g fill="none" stroke="#000000" stroke-opacity="1" stroke-width="1" stroke-linecap="square" stroke-linejoin="bevel" transform="matrix(2,0,0,2,-15,221)"
font-family="Ubuntu" font-size="11" font-weight="400" font-style="normal" 
>
</g>

<g fill="none" stroke="#000000" stroke-opacity="1" stroke-width="1" stroke-linecap="square" stroke-linejoin="round" transform="matrix(2,0,0,2,-15,221)"
font-family="Ubuntu" font-size="11" font-weight="400" font-style="normal" 
>
<path vector-effect="none" fill-rule="evenodd" d="M90.9984,-51.5 L175.002,-51.5 L175.002,-16.5 L90.9984,-16.5 L90.9984,-51.5"/>
</g>

<g fill="none" stroke="#000000" stroke-opacity="1" stroke-width="1" stroke-linecap="square" stroke-linejoin="bevel" transform="matrix(2,0,0,2,-15,221)"
font-family="Ubuntu" font-size="11" font-weight="400" font-style="normal" 
>
</g>

<g fill="none" stroke="#000000" stroke-opacity="1" stroke-width="1" stroke-linecap="square" stroke-linejoin="bevel" transform="matrix(2,0,0,2,182.75,139)"
font-family="Ubuntu" font-size="11" font-weight="400" font-style="normal" 
>
</g>

<g fill="none" stroke="#000000" stroke-opacity="1" stroke-width="1" stroke-linecap="square" stroke-linejoin="bevel" transform="matrix(2,0,0,2,182.75,139)"
font-family="sans" font-size="11" font-weight="100" font-style="normal" 
>
</g>

<g fill="#000000" fill-opacity="1" stroke="#000000" stroke-opacity="1" stroke-width="1" stroke-linecap="square" stroke-linejoin="round" transform="matrix(2,0,0,2,182.75,139)"
font-family="sans" font-size="11" font-weight="100" font-style="normal" 
>
<path vector-effect="non-scaling-stroke" fill-rule="nonzero" d="M2.79688,2.98438 L3.70312,2.98438 L0.90625,12.0156 L0,12.0156 L2.79688,2.98438 M4.73438,2.64062 L5.73438,2.64062 L5.73438,11 L4.73438,11 L4.73438,2.64062 M7.78125,4.98438 L8.78125,4.98438 L8.78125,11 L7.78125,11 L7.78125,4.98438 M7.78125,2.64062 L8.78125,2.64062 L8.78125,3.89062 L7.78125,3.89062 L7.78125,2.64062 M14.7969,5.89062 L14.7969,2.64062 L15.7812,2.64062 L15.7812,11 L14.7969,11 L14.7969,10.0938 C14.5885,10.4583 14.3255,10.7266 14.0078,10.8984 C13.6901,11.0703 13.3073,11.1562 12.8594,11.1562 C12.1406,11.1562 11.5521,10.8672 11.0938,10.2891 C10.6354,9.71094 10.4062,8.94792 10.4062,8 C10.4062,7.05208 10.6354,6.28906 11.0938,5.71094 C11.5521,5.13281 12.1406,4.84375 12.8594,4.84375 C13.3073,4.84375 13.6901,4.92969 14.0078,5.10156 C14.3255,5.27344 14.5885,5.53646 14.7969,5.89062 M11.4219,8 C11.4219,8.72917 11.5729,9.29948 11.875,9.71094 C12.1771,10.1224 12.5885,10.3281 13.1094,10.3281 C13.6302,10.3281 14.0417,10.1224 14.3438,9.71094 C14.6458,9.29948 14.7969,8.72917 14.7969,8 C14.7969,7.27083 14.6458,6.70052 14.3438,6.28906 C14.0417,5.8776 13.6302,5.67188 13.1094,5.67188 C12.5885,5.67188 12.1771,5.8776 11.875,6.28906 C11.5729,6.70052 11.4219,7.27083 11.4219,8 M20.5312,7.96875 C19.7396,7.96875 19.1901,8.0625 18.8828,8.25 C18.5755,8.4375 18.4219,8.75 18.4219,9.1875 C18.4219,9.53125 18.5365,9.80729 18.7656,10.0156 C18.9948,10.224 19.3073,10.3281 19.7031,10.3281 C20.2552,10.3281 20.6953,10.1328 21.0234,9.74219 C21.3516,9.35156 21.5156,8.83854 21.5156,8.20312 L21.5156,7.96875 L20.5312,7.96875 M22.5,7.5625 L22.5,11 L21.5156,11 L21.5156,10.0938 C21.2969,10.4583 21.0182,10.7266 20.6797,10.8984 C20.3411,11.0703 19.9271,11.1562 19.4375,11.1562 C18.8229,11.1562 18.3333,10.9844 17.9688,10.6406 C17.6042,10.2969 17.4219,9.83333 17.4219,9.25 C17.4219,8.57292 17.6484,8.0625 18.1016,7.71875 C18.5547,7.375 19.2344,7.20312 20.1406,7.20312 L21.5156,7.20312 L21.5156,7.10938 C21.5156,6.65104 21.3672,6.29688 21.0703,6.04688 C20.7734,5.79688 20.3542,5.67188 19.8125,5.67188 C19.4688,5.67188 19.1328,5.71354 18.8047,5.79688 C18.4766,5.88021 18.1615,6.00521 17.8594,6.17188 L17.8594,5.26562 C18.224,5.11979 18.5781,5.01302 18.9219,4.94531 C19.2656,4.8776 19.5938,4.84375 19.9062,4.84375 C20.7812,4.84375 21.4323,5.06771 21.8594,5.51562 C22.2865,5.96354 22.5,6.64583 22.5,7.5625 M28.0156,5.90625 C27.9115,5.84375 27.7943,5.79688 27.6641,5.76562 C27.5339,5.73438 27.3906,5.71875 27.2344,5.71875 C26.6719,5.71875 26.2422,5.90104 25.9453,6.26562 C25.6484,6.63021 25.5,7.15104 25.5,7.82812 L25.5,11 L24.5,11 L24.5,4.98438 L25.5,4.98438 L25.5,5.92188 C25.6979,5.55729 25.9635,5.28646 26.2969,5.10938 C26.6302,4.93229 27.0365,4.84375 27.5156,4.84375 C27.5885,4.84375 27.6641,4.84635 27.7422,4.85156 C27.8203,4.85677 27.9115,4.86979 28.0156,4.89062 L28.0156,5.90625 M33.625,12.8281 L33.625,13.5938 L27.9062,13.5938 L27.9062,12.8281 L33.625,12.8281 M35.5156,10.0938 L35.5156,13.2812 L34.5156,13.2812 L34.5156,4.98438 L35.5156,4.98438 L35.5156,5.89062 C35.7135,5.53646 35.9714,5.27344 36.2891,5.10156 C36.6068,4.92969 36.9896,4.84375 37.4375,4.84375 C38.1667,4.84375 38.7578,5.13281 39.2109,5.71094 C39.6641,6.28906 39.8906,7.05208 39.8906,8 C39.8906,8.94792 39.6641,9.71094 39.2109,10.2891 C38.7578,10.8672 38.1667,11.1562 37.4375,11.1562 C36.9896,11.1562 36.6068,11.0703 36.2891,10.8984 C35.9714,10.7266 35.7135,10.4583 35.5156,10.0938 M38.875,8 C38.875,7.27083 38.724,6.70052 38.4219,6.28906 C38.1198,5.8776 37.7083,5.67188 37.1875,5.67188 C36.6667,5.67188 36.2578,5.8776 35.9609,6.28906 C35.6641,6.70052 35.5156,7.27083 35.5156,8 C35.5156,8.72917 35.6641,9.29948 35.9609,9.71094 C36.2578,10.1224 36.6667,10.3281 37.1875,10.3281 C37.7083,10.3281 38.1198,10.1224 38.4219,9.71094 C38.724,9.29948 38.875,8.72917 38.875,8 M43.8594,5.67188 C43.3281,5.67188 42.9089,5.88021 42.6016,6.29688 C42.2943,6.71354 42.1406,7.28125 42.1406,8 C42.1406,8.71875 42.2917,9.28385 42.5938,9.69531 C42.8958,10.1068 43.3177,10.3125 43.8594,10.3125 C44.3802,10.3125 44.7943,10.1068 45.1016,9.69531 C45.4089,9.28385 45.5625,8.71875 45.5625,8 C45.5625,7.28125 45.4089,6.71354 45.1016,6.29688 C44.7943,5.88021 44.3802,5.67188 43.8594,5.67188 M43.8594,4.84375 C44.7135,4.84375 45.3854,5.1224 45.875,5.67969 C46.3646,6.23698 46.6094,7.01042 46.6094,8 C46.6094,8.97917 46.3646,9.75 45.875,10.3125 C45.3854,10.875 44.7135,11.1562 43.8594,11.1562 C42.9948,11.1562 42.3177,10.875 41.8281,10.3125 C41.3385,9.75 41.0938,8.97917 41.0938,8 C41.0938,7.01042 41.3385,6.23698 41.8281,5.67969 C42.3177,5.1224 42.9948,4.84375 43.8594,4.84375 M48.2344,4.98438 L49.2344,4.98438 L49.2344,11 L48.2344,11 L48.2344,4.98438 M48.2344,2.64062 L49.2344,2.64062 L49.2344,3.89062 L48.2344,3.89062 L48.2344,2.64062 M56.2812,7.375 L56.2812,11 L55.2969,11 L55.2969,7.40625 C55.2969,6.83333 55.1875,6.40625 54.9688,6.125 C54.75,5.84375 54.4167,5.70312 53.9688,5.70312 C53.4375,5.70312 53.0182,5.8724 52.7109,6.21094 C52.4036,6.54948 52.25,7.01042 52.25,7.59375 L52.25,11 L51.25,11 L51.25,4.98438 L52.25,4.98438 L52.25,5.92188 C52.4792,5.55729 52.7552,5.28646 53.0781,5.10938 C53.401,4.93229 53.7708,4.84375 54.1875,4.84375 C54.875,4.84375 55.3958,5.05729 55.75,5.48438 C56.1042,5.91146 56.2812,6.54167 56.2812,7.375 M59.2344,3.28125 L59.2344,4.98438 L61.2656,4.98438 L61.2656,5.75 L59.2344,5.75 L59.2344,9.01562 C59.2344,9.50521 59.3021,9.82031 59.4375,9.96094 C59.5729,10.1016 59.8438,10.1719 60.25,10.1719 L61.2656,10.1719 L61.2656,11 L60.25,11 C59.4896,11 58.9635,10.8568 58.6719,10.5703 C58.3802,10.2839 58.2344,9.76562 58.2344,9.01562 L58.2344,5.75 L57.5156,5.75 L57.5156,4.98438 L58.2344,4.98438 L58.2344,3.28125 L59.2344,3.28125 M66.4062,5.15625 L66.4062,6.09375 C66.125,5.94792 65.8333,5.84115 65.5312,5.77344 C65.2292,5.70573 64.9167,5.67188 64.5938,5.67188 C64.1042,5.67188 63.737,5.7474 63.4922,5.89844 C63.2474,6.04948 63.125,6.27083 63.125,6.5625 C63.125,6.79167 63.2135,6.97135 63.3906,7.10156 C63.5677,7.23177 63.9219,7.35938 64.4531,7.48438 L64.7812,7.5625 C65.4896,7.70833 65.9896,7.91927 66.2812,8.19531 C66.5729,8.47135 66.7188,8.85417 66.7188,9.34375 C66.7188,9.89583 66.5,10.3359 66.0625,10.6641 C65.625,10.9922 65.0156,11.1562 64.2344,11.1562 C63.9115,11.1562 63.5755,11.125 63.2266,11.0625 C62.8776,11 62.5104,10.9062 62.125,10.7812 L62.125,9.76562 C62.4896,9.95312 62.849,10.0938 63.2031,10.1875 C63.5573,10.2812 63.9115,10.3281 64.2656,10.3281 C64.724,10.3281 65.0781,10.2474 65.3281,10.0859 C65.5781,9.92448 65.7031,9.70312 65.7031,9.42188 C65.7031,9.15104 65.6146,8.94271 65.4375,8.79688 C65.2604,8.65104 64.8646,8.51562 64.25,8.39062 L63.9062,8.29688 C63.2917,8.17188 62.849,7.97656 62.5781,7.71094 C62.3073,7.44531 62.1719,7.07812 62.1719,6.60938 C62.1719,6.04688 62.3724,5.61198 62.7734,5.30469 C63.1745,4.9974 63.7448,4.84375 64.4844,4.84375 C64.849,4.84375 65.1927,4.86979 65.5156,4.92188 C65.8385,4.97396 66.1354,5.05208 66.4062,5.15625 "/>
</g>

<g fill="none" stroke="#000000" stroke-opacity="1" stroke-width="1" stroke-linecap="square" stroke-linejoin="bevel" transform="matrix(2,0,0,2,182.75,139)"
font-family="sans" font-size="11" font-weight="100" font-style="normal" 
>
</g>

<g fill="none" stroke="#000000" stroke-opacity="1" stroke-width="1" stroke-linecap="square" stroke-linejoin="bevel" transform="matrix(2,0,0,2,182.75,139)"
font-family="Ubuntu" font-size="11" font-weight="400" font-style="normal" 
>
</g>

<g fill="none" stroke="#000000" stroke-opacity="1" stroke-width="1" stroke-linecap="square" stroke-linejoin="bevel" transform="matrix(2,0,0,2,-15,221)"
font-family="Ubuntu" font-size="11" font-weight="400" font-style="normal" 
>
</g>

<g fill="none" stroke="#000000" stroke-opacity="1" stroke-width="1" stroke-linecap="square" stroke-linejoin="bevel" transform="matrix(2,0,0,2,-15,221)"
font-family="Ubuntu" font-size="11" font-weight="400" font-style="normal" 
>
</g>

<g fill="none" stroke="#000000" stroke-opacity="1" stroke-width="1" stroke-linecap="square" stroke-linejoin="bevel" transform="matrix(2,0,0,2,-15,221)"
font-family="Ubuntu" font-size="11" font-weight="400" font-style="normal" 
>
</g>

<g fill="none" stroke="#000000" stroke-opacity="1" stroke-width="1" stroke-linecap="square" stroke-linejoin="round" transform="matrix(2,0,0,2,-15,221)"
font-family="Ubuntu" font-size="11" font-weight="400" font-style="normal" 
>
<path vector-effect="none" fill-rule="evenodd" d="M184,-83 L562,-83 L562,-8 L184,-8 L184,-83"/>
</g>

<g fill="none" stroke="#000000" stroke-opacity="1" stroke-width="1" stroke-linecap="square" stroke-linejoin="bevel" transform="matrix(2,0,0,2,-15,221)"
font-family="Ubuntu" font-size="11" font-weight="400" font-style="normal" 
>
</g>

<g fill="none" stroke="#000000" stroke-opacity="1" stroke-width="1" stroke-linecap="square" stroke-linejoin="bevel" transform="matrix(2,0,0,2,469.922,64)"
font-family="Ubuntu" font-size="11" font-weight="400" font-style="normal" 
>
</g>

<g fill="none" stroke="#000000" stroke-opacity="1" stroke-width="1" stroke-linecap="square" stroke-linejoin="bevel" transform="matrix(2,0,0,2,469.922,64)"
font-family="sans" font-size="11" font-weight="100" font-style="normal" 
>
</g>

<g fill="#000000" fill-opacity="1" stroke="#000000" stroke-opacity="1" stroke-width="1" stroke-linecap="square" stroke-linejoin="round" transform="matrix(2,0,0,2,469.922,64)"
font-family="sans" font-size="11" font-weight="100" font-style="normal" 
>
<path vector-effect="non-scaling-stroke" fill-rule="nonzero" d="M2,10.0938 L2,13.2812 L1,13.2812 L1,4.98438 L2,4.98438 L2,5.89062 C2.19792,5.53646 2.45573,5.27344 2.77344,5.10156 C3.09115,4.92969 3.47396,4.84375 3.92188,4.84375 C4.65104,4.84375 5.24219,5.13281 5.69531,5.71094 C6.14844,6.28906 6.375,7.05208 6.375,8 C6.375,8.94792 6.14844,9.71094 5.69531,10.2891 C5.24219,10.8672 4.65104,11.1562 3.92188,11.1562 C3.47396,11.1562 3.09115,11.0703 2.77344,10.8984 C2.45573,10.7266 2.19792,10.4583 2,10.0938 M5.35938,8 C5.35938,7.27083 5.20833,6.70052 4.90625,6.28906 C4.60417,5.8776 4.19271,5.67188 3.67188,5.67188 C3.15104,5.67188 2.74219,5.8776 2.44531,6.28906 C2.14844,6.70052 2,7.27083 2,8 C2,8.72917 2.14844,9.29948 2.44531,9.71094 C2.74219,10.1224 3.15104,10.3281 3.67188,10.3281 C4.19271,10.3281 4.60417,10.1224 4.90625,9.71094 C5.20833,9.29948 5.35938,8.72917 5.35938,8 M10.3438,5.67188 C9.8125,5.67188 9.39323,5.88021 9.08594,6.29688 C8.77865,6.71354 8.625,7.28125 8.625,8 C8.625,8.71875 8.77604,9.28385 9.07812,9.69531 C9.38021,10.1068 9.80208,10.3125 10.3438,10.3125 C10.8646,10.3125 11.2786,10.1068 11.5859,9.69531 C11.8932,9.28385 12.0469,8.71875 12.0469,8 C12.0469,7.28125 11.8932,6.71354 11.5859,6.29688 C11.2786,5.88021 10.8646,5.67188 10.3438,5.67188 M10.3438,4.84375 C11.1979,4.84375 11.8698,5.1224 12.3594,5.67969 C12.849,6.23698 13.0938,7.01042 13.0938,8 C13.0938,8.97917 12.849,9.75 12.3594,10.3125 C11.8698,10.875 11.1979,11.1562 10.3438,11.1562 C9.47917,11.1562 8.80208,10.875 8.3125,10.3125 C7.82292,9.75 7.57812,8.97917 7.57812,8 C7.57812,7.01042 7.82292,6.23698 8.3125,5.67969 C8.80208,5.1224 9.47917,4.84375 10.3438,4.84375 M14.7188,4.98438 L15.7188,4.98438 L15.7188,11 L14.7188,11 L14.7188,4.98438 M14.7188,2.64062 L15.7188,2.64062 L15.7188,3.89062 L14.7188,3.89062 L14.7188,2.64062 M22.7656,7.375 L22.7656,11 L21.7812,11 L21.7812,7.40625 C21.7812,6.83333 21.6719,6.40625 21.4531,6.125 C21.2344,5.84375 20.901,5.70312 20.4531,5.70312 C19.9219,5.70312 19.5026,5.8724 19.1953,6.21094 C18.888,6.54948 18.7344,7.01042 18.7344,7.59375 L18.7344,11 L17.7344,11 L17.7344,4.98438 L18.7344,4.98438 L18.7344,5.92188 C18.9635,5.55729 19.2396,5.28646 19.5625,5.10938 C19.8854,4.93229 20.2552,4.84375 20.6719,4.84375 C21.3594,4.84375 21.8802,5.05729 22.2344,5.48438 C22.5885,5.91146 22.7656,6.54167 22.7656,7.375 M25.7188,3.28125 L25.7188,4.98438 L27.75,4.98438 L27.75,5.75 L25.7188,5.75 L25.7188,9.01562 C25.7188,9.50521 25.7865,9.82031 25.9219,9.96094 C26.0573,10.1016 26.3281,10.1719 26.7344,10.1719 L27.75,10.1719 L27.75,11 L26.7344,11 C25.974,11 25.4479,10.8568 25.1562,10.5703 C24.8646,10.2839 24.7188,9.76562 24.7188,9.01562 L24.7188,5.75 L24,5.75 L24,4.98438 L24.7188,4.98438 L24.7188,3.28125 L25.7188,3.28125 M33.625,12.8281 L33.625,13.5938 L27.9062,13.5938 L27.9062,12.8281 L33.625,12.8281 M38.875,5.21875 L38.875,6.14062 C38.6042,5.98438 38.3281,5.86719 38.0469,5.78906 C37.7656,5.71094 37.4792,5.67188 37.1875,5.67188 C36.5521,5.67188 36.0573,5.875 35.7031,6.28125 C35.349,6.6875 35.1719,7.26042 35.1719,8 C35.1719,8.72917 35.349,9.29688 35.7031,9.70312 C36.0573,10.1094 36.5521,10.3125 37.1875,10.3125 C37.4792,10.3125 37.7656,10.276 38.0469,10.2031 C38.3281,10.1302 38.6042,10.0156 38.875,9.85938 L38.875,10.7656 C38.6042,10.901 38.3203,11 38.0234,11.0625 C37.7266,11.125 37.4115,11.1562 37.0781,11.1562 C36.1719,11.1562 35.4531,10.8724 34.9219,10.3047 C34.3906,9.73698 34.125,8.96875 34.125,8 C34.125,7.02083 34.3932,6.25 34.9297,5.6875 C35.4661,5.125 36.2031,4.84375 37.1406,4.84375 C37.4531,4.84375 37.7526,4.875 38.0391,4.9375 C38.3255,5 38.6042,5.09375 38.875,5.21875 M40.5938,2.64062 L41.5938,2.64062 L41.5938,11 L40.5938,11 L40.5938,2.64062 M45.9844,5.67188 C45.4531,5.67188 45.0339,5.88021 44.7266,6.29688 C44.4193,6.71354 44.2656,7.28125 44.2656,8 C44.2656,8.71875 44.4167,9.28385 44.7188,9.69531 C45.0208,10.1068 45.4427,10.3125 45.9844,10.3125 C46.5052,10.3125 46.9193,10.1068 47.2266,9.69531 C47.5339,9.28385 47.6875,8.71875 47.6875,8 C47.6875,7.28125 47.5339,6.71354 47.2266,6.29688 C46.9193,5.88021 46.5052,5.67188 45.9844,5.67188 M45.9844,4.84375 C46.8385,4.84375 47.5104,5.1224 48,5.67969 C48.4896,6.23698 48.7344,7.01042 48.7344,8 C48.7344,8.97917 48.4896,9.75 48,10.3125 C47.5104,10.875 46.8385,11.1562 45.9844,11.1562 C45.1198,11.1562 44.4427,10.875 43.9531,10.3125 C43.4635,9.75 43.2188,8.97917 43.2188,8 C43.2188,7.01042 43.4635,6.23698 43.9531,5.67969 C44.4427,5.1224 45.1198,4.84375 45.9844,4.84375 M50.2656,8.625 L50.2656,4.98438 L51.25,4.98438 L51.25,8.59375 C51.25,9.15625 51.362,9.58073 51.5859,9.86719 C51.8099,10.1536 52.1406,10.2969 52.5781,10.2969 C53.1198,10.2969 53.5443,10.1276 53.8516,9.78906 C54.1589,9.45052 54.3125,8.98438 54.3125,8.39062 L54.3125,4.98438 L55.2969,4.98438 L55.2969,11 L54.3125,11 L54.3125,10.0781 C54.0729,10.4427 53.7943,10.7135 53.4766,10.8906 C53.1589,11.0677 52.7917,11.1562 52.375,11.1562 C51.6875,11.1562 51.1641,10.9401 50.8047,10.5078 C50.4453,10.0755 50.2656,9.44792 50.2656,8.625 M61.2969,5.89062 L61.2969,2.64062 L62.2812,2.64062 L62.2812,11 L61.2969,11 L61.2969,10.0938 C61.0885,10.4583 60.8255,10.7266 60.5078,10.8984 C60.1901,11.0703 59.8073,11.1562 59.3594,11.1562 C58.6406,11.1562 58.0521,10.8672 57.5938,10.2891 C57.1354,9.71094 56.9062,8.94792 56.9062,8 C56.9062,7.05208 57.1354,6.28906 57.5938,5.71094 C58.0521,5.13281 58.6406,4.84375 59.3594,4.84375 C59.8073,4.84375 60.1901,4.92969 60.5078,5.10156 C60.8255,5.27344 61.0885,5.53646 61.2969,5.89062 M57.9219,8 C57.9219,8.72917 58.0729,9.29948 58.375,9.71094 C58.6771,10.1224 59.0885,10.3281 59.6094,10.3281 C60.1302,10.3281 60.5417,10.1224 60.8438,9.71094 C61.1458,9.29948 61.2969,8.72917 61.2969,8 C61.2969,7.27083 61.1458,6.70052 60.8438,6.28906 C60.5417,5.8776 60.1302,5.67188 59.6094,5.67188 C59.0885,5.67188 58.6771,5.8776 58.375,6.28906 C58.0729,6.70052 57.9219,7.27083 57.9219,8 M68.875,12.8281 L68.875,13.5938 L63.1562,13.5938 L63.1562,12.8281 L68.875,12.8281 M74.125,5.21875 L74.125,6.14062 C73.8542,5.98438 73.5781,5.86719 73.2969,5.78906 C73.0156,5.71094 72.7292,5.67188 72.4375,5.67188 C71.8021,5.67188 71.3073,5.875 70.9531,6.28125 C70.599,6.6875 70.4219,7.26042 70.4219,8 C70.4219,8.72917 70.599,9.29688 70.9531,9.70312 C71.3073,10.1094 71.8021,10.3125 72.4375,10.3125 C72.7292,10.3125 73.0156,10.276 73.2969,10.2031 C73.5781,10.1302 73.8542,10.0156 74.125,9.85938 L74.125,10.7656 C73.8542,10.901 73.5703,11 73.2734,11.0625 C72.9766,11.125 72.6615,11.1562 72.3281,11.1562 C71.4219,11.1562 70.7031,10.8724 70.1719,10.3047 C69.6406,9.73698 69.375,8.96875 69.375,8 C69.375,7.02083 69.6432,6.25 70.1797,5.6875 C70.7161,5.125 71.4531,4.84375 72.3906,4.84375 C72.7031,4.84375 73.0026,4.875 73.2891,4.9375 C73.5755,5 73.8542,5.09375 74.125,5.21875 M78.1875,5.67188 C77.6562,5.67188 77.237,5.88021 76.9297,6.29688 C76.6224,6.71354 76.4688,7.28125 76.4688,8 C76.4688,8.71875 76.6198,9.28385 76.9219,9.69531 C77.224,10.1068 77.6458,10.3125 78.1875,10.3125 C78.7083,10.3125 79.1224,10.1068 79.4297,9.69531 C79.737,9.28385 79.8906,8.71875 79.8906,8 C79.8906,7.28125 79.737,6.71354 79.4297,6.29688 C79.1224,5.88021 78.7083,5.67188 78.1875,5.67188 M78.1875,4.84375 C79.0417,4.84375 79.7135,5.1224 80.2031,5.67969 C80.6927,6.23698 80.9375,7.01042 80.9375,8 C80.9375,8.97917 80.6927,9.75 80.2031,10.3125 C79.7135,10.875 79.0417,11.1562 78.1875,11.1562 C77.3229,11.1562 76.6458,10.875 76.1562,10.3125 C75.6667,9.75 75.4219,8.97917 75.4219,8 C75.4219,7.01042 75.6667,6.23698 76.1562,5.67969 C76.6458,5.1224 77.3229,4.84375 78.1875,4.84375 M87.5625,7.375 L87.5625,11 L86.5781,11 L86.5781,7.40625 C86.5781,6.83333 86.4688,6.40625 86.25,6.125 C86.0312,5.84375 85.6979,5.70312 85.25,5.70312 C84.7188,5.70312 84.2995,5.8724 83.9922,6.21094 C83.6849,6.54948 83.5312,7.01042 83.5312,7.59375 L83.5312,11 L82.5312,11 L82.5312,4.98438 L83.5312,4.98438 L83.5312,5.92188 C83.7604,5.55729 84.0365,5.28646 84.3594,5.10938 C84.6823,4.93229 85.0521,4.84375 85.4688,4.84375 C86.1562,4.84375 86.6771,5.05729 87.0312,5.48438 C87.3854,5.91146 87.5625,6.54167 87.5625,7.375 M88.8281,4.98438 L89.875,4.98438 L91.75,10.0312 L93.6406,4.98438 L94.6875,4.98438 L92.4219,11 L91.0781,11 L88.8281,4.98438 M101.188,7.75 L101.188,8.23438 L96.6406,8.23438 C96.6823,8.91146 96.8854,9.42708 97.25,9.78125 C97.6146,10.1354 98.125,10.3125 98.7812,10.3125 C99.1667,10.3125 99.5365,10.2656 99.8906,10.1719 C100.245,10.0781 100.599,9.94271 100.953,9.76562 L100.953,10.6875 C100.599,10.8438 100.234,10.9609 99.8594,11.0391 C99.4844,11.1172 99.1094,11.1562 98.7344,11.1562 C97.7656,11.1562 97.0026,10.8776 96.4453,10.3203 C95.888,9.76302 95.6094,9.00521 95.6094,8.04688 C95.6094,7.06771 95.875,6.28906 96.4062,5.71094 C96.9375,5.13281 97.6562,4.84375 98.5625,4.84375 C99.3646,4.84375 100.003,5.10417 100.477,5.625 C100.951,6.14583 101.188,6.85417 101.188,7.75 M100.188,7.45312 C100.188,6.91146 100.039,6.47917 99.7422,6.15625 C99.4453,5.83333 99.0521,5.67188 98.5625,5.67188 C98.0104,5.67188 97.5703,5.82812 97.2422,6.14062 C96.9141,6.45312 96.724,6.89062 96.6719,7.45312 L100.188,7.45312 M106.281,5.90625 C106.177,5.84375 106.06,5.79688 105.93,5.76562 C105.799,5.73438 105.656,5.71875 105.5,5.71875 C104.938,5.71875 104.508,5.90104 104.211,6.26562 C103.914,6.63021 103.766,7.15104 103.766,7.82812 L103.766,11 L102.766,11 L102.766,4.98438 L103.766,4.98438 L103.766,5.92188 C103.964,5.55729 104.229,5.28646 104.562,5.10938 C104.896,4.93229 105.302,4.84375 105.781,4.84375 C105.854,4.84375 105.93,4.84635 106.008,4.85156 C106.086,4.85677 106.177,4.86979 106.281,4.89062 L106.281,5.90625 M108.297,3.28125 L108.297,4.98438 L110.328,4.98438 L110.328,5.75 L108.297,5.75 L108.297,9.01562 C108.297,9.50521 108.365,9.82031 108.5,9.96094 C108.635,10.1016 108.906,10.1719 109.312,10.1719 L110.328,10.1719 L110.328,11 L109.312,11 C108.552,11 108.026,10.8568 107.734,10.5703 C107.443,10.2839 107.297,9.76562 107.297,9.01562 L107.297,5.75 L106.578,5.75 L106.578,4.98438 L107.297,4.98438 L107.297,3.28125 L108.297,3.28125 M116.781,7.75 L116.781,8.23438 L112.234,8.23438 C112.276,8.91146 112.479,9.42708 112.844,9.78125 C113.208,10.1354 113.719,10.3125 114.375,10.3125 C114.76,10.3125 115.13,10.2656 115.484,10.1719 C115.839,10.0781 116.193,9.94271 116.547,9.76562 L116.547,10.6875 C116.193,10.8438 115.828,10.9609 115.453,11.0391 C115.078,11.1172 114.703,11.1562 114.328,11.1562 C113.359,11.1562 112.596,10.8776 112.039,10.3203 C111.482,9.76302 111.203,9.00521 111.203,8.04688 C111.203,7.06771 111.469,6.28906 112,5.71094 C112.531,5.13281 113.25,4.84375 114.156,4.84375 C114.958,4.84375 115.596,5.10417 116.07,5.625 C116.544,6.14583 116.781,6.85417 116.781,7.75 M115.781,7.45312 C115.781,6.91146 115.633,6.47917 115.336,6.15625 C115.039,5.83333 114.646,5.67188 114.156,5.67188 C113.604,5.67188 113.164,5.82812 112.836,6.14062 C112.508,6.45312 112.318,6.89062 112.266,7.45312 L115.781,7.45312 M121.875,5.90625 C121.771,5.84375 121.654,5.79688 121.523,5.76562 C121.393,5.73438 121.25,5.71875 121.094,5.71875 C120.531,5.71875 120.102,5.90104 119.805,6.26562 C119.508,6.63021 119.359,7.15104 119.359,7.82812 L119.359,11 L118.359,11 L118.359,4.98438 L119.359,4.98438 L119.359,5.92188 C119.557,5.55729 119.823,5.28646 120.156,5.10938 C120.49,4.93229 120.896,4.84375 121.375,4.84375 C121.448,4.84375 121.523,4.84635 121.602,4.85156 C121.68,4.85677 121.771,4.86979 121.875,4.89062 L121.875,5.90625 M127.484,12.8281 L127.484,13.5938 L121.766,13.5938 L121.766,12.8281 L127.484,12.8281 M128.734,10.0938 L130.516,10.0938 L130.516,3.96875 L128.578,4.35938 L128.578,3.375 L130.5,2.98438 L131.594,2.98438 L131.594,10.0938 L133.359,10.0938 L133.359,11 L128.734,11 L128.734,10.0938 M135.547,2.98438 L139.812,2.98438 L139.812,3.89062 L136.547,3.89062 L136.547,5.85938 C136.703,5.80729 136.859,5.76823 137.016,5.74219 C137.172,5.71615 137.328,5.70312 137.484,5.70312 C138.38,5.70312 139.089,5.94792 139.609,6.4375 C140.13,6.92708 140.391,7.58854 140.391,8.42188 C140.391,9.28646 140.122,9.95833 139.586,10.4375 C139.049,10.9167 138.292,11.1562 137.312,11.1562 C136.979,11.1562 136.638,11.1276 136.289,11.0703 C135.94,11.013 135.578,10.9271 135.203,10.8125 L135.203,9.71875 C135.526,9.89583 135.859,10.0286 136.203,10.1172 C136.547,10.2057 136.911,10.25 137.297,10.25 C137.922,10.25 138.414,10.0859 138.773,9.75781 C139.133,9.42969 139.312,8.98438 139.312,8.42188 C139.312,7.86979 139.133,7.42969 138.773,7.10156 C138.414,6.77344 137.922,6.60938 137.297,6.60938 C137.005,6.60938 136.716,6.64323 136.43,6.71094 C136.143,6.77865 135.849,6.88021 135.547,7.01562 L135.547,2.98438 M144.844,3.6875 C144.281,3.6875 143.859,3.96354 143.578,4.51562 C143.297,5.06771 143.156,5.89583 143.156,7 C143.156,8.09375 143.297,8.91667 143.578,9.46875 C143.859,10.0208 144.281,10.2969 144.844,10.2969 C145.406,10.2969 145.828,10.0208 146.109,9.46875 C146.391,8.91667 146.531,8.09375 146.531,7 C146.531,5.89583 146.391,5.06771 146.109,4.51562 C145.828,3.96354 145.406,3.6875 144.844,3.6875 M144.844,2.82812 C145.74,2.82812 146.424,3.1849 146.898,3.89844 C147.372,4.61198 147.609,5.64583 147.609,7 C147.609,8.34375 147.372,9.3724 146.898,10.0859 C146.424,10.7995 145.74,11.1562 144.844,11.1562 C143.948,11.1562 143.26,10.7995 142.781,10.0859 C142.302,9.3724 142.062,8.34375 142.062,7 C142.062,5.64583 142.302,4.61198 142.781,3.89844 C143.26,3.1849 143.948,2.82812 144.844,2.82812 M149.516,2.98438 L153.781,2.98438 L153.781,3.89062 L150.516,3.89062 L150.516,5.85938 C150.672,5.80729 150.828,5.76823 150.984,5.74219 C151.141,5.71615 151.297,5.70312 151.453,5.70312 C152.349,5.70312 153.057,5.94792 153.578,6.4375 C154.099,6.92708 154.359,7.58854 154.359,8.42188 C154.359,9.28646 154.091,9.95833 153.555,10.4375 C153.018,10.9167 152.26,11.1562 151.281,11.1562 C150.948,11.1562 150.607,11.1276 150.258,11.0703 C149.909,11.013 149.547,10.9271 149.172,10.8125 L149.172,9.71875 C149.495,9.89583 149.828,10.0286 150.172,10.1172 C150.516,10.2057 150.88,10.25 151.266,10.25 C151.891,10.25 152.383,10.0859 152.742,9.75781 C153.102,9.42969 153.281,8.98438 153.281,8.42188 C153.281,7.86979 153.102,7.42969 152.742,7.10156 C152.383,6.77344 151.891,6.60938 151.266,6.60938 C150.974,6.60938 150.685,6.64323 150.398,6.71094 C150.112,6.77865 149.818,6.88021 149.516,7.01562 L149.516,2.98438 M158.812,7.1875 C158.292,7.1875 157.885,7.32552 157.594,7.60156 C157.302,7.8776 157.156,8.26042 157.156,8.75 C157.156,9.22917 157.302,9.60677 157.594,9.88281 C157.885,10.1589 158.292,10.2969 158.812,10.2969 C159.323,10.2969 159.727,10.1589 160.023,9.88281 C160.32,9.60677 160.469,9.22917 160.469,8.75 C160.469,8.26042 160.323,7.8776 160.031,7.60156 C159.74,7.32552 159.333,7.1875 158.812,7.1875 M157.719,6.73438 C157.26,6.61979 156.901,6.40365 156.641,6.08594 C156.38,5.76823 156.25,5.38021 156.25,4.92188 C156.25,4.27604 156.477,3.76562 156.93,3.39062 C157.383,3.01562 158.01,2.82812 158.812,2.82812 C159.604,2.82812 160.229,3.01562 160.688,3.39062 C161.146,3.76562 161.375,4.27604 161.375,4.92188 C161.375,5.38021 161.245,5.76823 160.984,6.08594 C160.724,6.40365 160.365,6.61979 159.906,6.73438 C160.427,6.84896 160.833,7.08333 161.125,7.4375 C161.417,7.79167 161.562,8.22917 161.562,8.75 C161.562,9.52083 161.326,10.1146 160.852,10.5312 C160.378,10.9479 159.698,11.1562 158.812,11.1562 C157.927,11.1562 157.247,10.9479 156.773,10.5312 C156.299,10.1146 156.062,9.52083 156.062,8.75 C156.062,8.22917 156.208,7.79167 156.5,7.4375 C156.792,7.08333 157.198,6.84896 157.719,6.73438 M157.328,5.01562 C157.328,5.43229 157.458,5.75781 157.719,5.99219 C157.979,6.22656 158.344,6.34375 158.812,6.34375 C159.271,6.34375 159.633,6.22656 159.898,5.99219 C160.164,5.75781 160.297,5.43229 160.297,5.01562 C160.297,4.59896 160.164,4.27344 159.898,4.03906 C159.633,3.80469 159.271,3.6875 158.812,3.6875 C158.344,3.6875 157.979,3.80469 157.719,4.03906 C157.458,4.27344 157.328,4.59896 157.328,5.01562 M163.484,2.98438 L167.75,2.98438 L167.75,3.89062 L164.484,3.89062 L164.484,5.85938 C164.641,5.80729 164.797,5.76823 164.953,5.74219 C165.109,5.71615 165.266,5.70312 165.422,5.70312 C166.318,5.70312 167.026,5.94792 167.547,6.4375 C168.068,6.92708 168.328,7.58854 168.328,8.42188 C168.328,9.28646 168.06,9.95833 167.523,10.4375 C166.987,10.9167 166.229,11.1562 165.25,11.1562 C164.917,11.1562 164.576,11.1276 164.227,11.0703 C163.878,11.013 163.516,10.9271 163.141,10.8125 L163.141,9.71875 C163.464,9.89583 163.797,10.0286 164.141,10.1172 C164.484,10.2057 164.849,10.25 165.234,10.25 C165.859,10.25 166.352,10.0859 166.711,9.75781 C167.07,9.42969 167.25,8.98438 167.25,8.42188 C167.25,7.86979 167.07,7.42969 166.711,7.10156 C166.352,6.77344 165.859,6.60938 165.234,6.60938 C164.943,6.60938 164.654,6.64323 164.367,6.71094 C164.081,6.77865 163.786,6.88021 163.484,7.01562 L163.484,2.98438 M170.469,2.98438 L174.734,2.98438 L174.734,3.89062 L171.469,3.89062 L171.469,5.85938 C171.625,5.80729 171.781,5.76823 171.938,5.74219 C172.094,5.71615 172.25,5.70312 172.406,5.70312 C173.302,5.70312 174.01,5.94792 174.531,6.4375 C175.052,6.92708 175.312,7.58854 175.312,8.42188 C175.312,9.28646 175.044,9.95833 174.508,10.4375 C173.971,10.9167 173.214,11.1562 172.234,11.1562 C171.901,11.1562 171.56,11.1276 171.211,11.0703 C170.862,11.013 170.5,10.9271 170.125,10.8125 L170.125,9.71875 C170.448,9.89583 170.781,10.0286 171.125,10.1172 C171.469,10.2057 171.833,10.25 172.219,10.25 C172.844,10.25 173.336,10.0859 173.695,9.75781 C174.055,9.42969 174.234,8.98438 174.234,8.42188 C174.234,7.86979 174.055,7.42969 173.695,7.10156 C173.336,6.77344 172.844,6.60938 172.219,6.60938 C171.927,6.60938 171.638,6.64323 171.352,6.71094 C171.065,6.77865 170.771,6.88021 170.469,7.01562 L170.469,2.98438 M179.766,7.1875 C179.245,7.1875 178.839,7.32552 178.547,7.60156 C178.255,7.8776 178.109,8.26042 178.109,8.75 C178.109,9.22917 178.255,9.60677 178.547,9.88281 C178.839,10.1589 179.245,10.2969 179.766,10.2969 C180.276,10.2969 180.68,10.1589 180.977,9.88281 C181.273,9.60677 181.422,9.22917 181.422,8.75 C181.422,8.26042 181.276,7.8776 180.984,7.60156 C180.693,7.32552 180.286,7.1875 179.766,7.1875 M178.672,6.73438 C178.214,6.61979 177.854,6.40365 177.594,6.08594 C177.333,5.76823 177.203,5.38021 177.203,4.92188 C177.203,4.27604 177.43,3.76562 177.883,3.39062 C178.336,3.01562 178.964,2.82812 179.766,2.82812 C180.557,2.82812 181.182,3.01562 181.641,3.39062 C182.099,3.76562 182.328,4.27604 182.328,4.92188 C182.328,5.38021 182.198,5.76823 181.938,6.08594 C181.677,6.40365 181.318,6.61979 180.859,6.73438 C181.38,6.84896 181.786,7.08333 182.078,7.4375 C182.37,7.79167 182.516,8.22917 182.516,8.75 C182.516,9.52083 182.279,10.1146 181.805,10.5312 C181.331,10.9479 180.651,11.1562 179.766,11.1562 C178.88,11.1562 178.201,10.9479 177.727,10.5312 C177.253,10.1146 177.016,9.52083 177.016,8.75 C177.016,8.22917 177.161,7.79167 177.453,7.4375 C177.745,7.08333 178.151,6.84896 178.672,6.73438 M178.281,5.01562 C178.281,5.43229 178.411,5.75781 178.672,5.99219 C178.932,6.22656 179.297,6.34375 179.766,6.34375 C180.224,6.34375 180.586,6.22656 180.852,5.99219 C181.117,5.75781 181.25,5.43229 181.25,5.01562 C181.25,4.59896 181.117,4.27344 180.852,4.03906 C180.586,3.80469 180.224,3.6875 179.766,3.6875 C179.297,3.6875 178.932,3.80469 178.672,4.03906 C178.411,4.27344 178.281,4.59896 178.281,5.01562 M185.359,10.0938 L189.141,10.0938 L189.141,11 L184.062,11 L184.062,10.0938 C184.469,9.66667 185.029,9.09375 185.742,8.375 C186.456,7.65625 186.901,7.19271 187.078,6.98438 C187.422,6.58854 187.664,6.25521 187.805,5.98438 C187.945,5.71354 188.016,5.44792 188.016,5.1875 C188.016,4.76042 187.867,4.41406 187.57,4.14844 C187.273,3.88281 186.88,3.75 186.391,3.75 C186.057,3.75 185.701,3.8099 185.32,3.92969 C184.94,4.04948 184.536,4.22917 184.109,4.46875 L184.109,3.375 C184.547,3.19792 184.956,3.0625 185.336,2.96875 C185.716,2.875 186.062,2.82812 186.375,2.82812 C187.208,2.82812 187.872,3.03646 188.367,3.45312 C188.862,3.86979 189.109,4.42708 189.109,5.125 C189.109,5.45833 189.047,5.77083 188.922,6.0625 C188.797,6.35417 188.573,6.70312 188.25,7.10938 C188.156,7.21354 187.87,7.51302 187.391,8.00781 C186.911,8.5026 186.234,9.19792 185.359,10.0938 M191.438,10.8281 L191.438,9.84375 C191.708,9.96875 191.984,10.0677 192.266,10.1406 C192.547,10.2135 192.823,10.25 193.094,10.25 C193.812,10.25 194.359,10.0078 194.734,9.52344 C195.109,9.03906 195.323,8.30729 195.375,7.32812 C195.167,7.63021 194.904,7.86458 194.586,8.03125 C194.268,8.19792 193.917,8.28125 193.531,8.28125 C192.729,8.28125 192.094,8.03906 191.625,7.55469 C191.156,7.07031 190.922,6.40625 190.922,5.5625 C190.922,4.73958 191.167,4.07812 191.656,3.57812 C192.146,3.07812 192.797,2.82812 193.609,2.82812 C194.536,2.82812 195.242,3.1849 195.727,3.89844 C196.211,4.61198 196.453,5.64583 196.453,7 C196.453,8.26042 196.154,9.26823 195.555,10.0234 C194.956,10.7786 194.151,11.1562 193.141,11.1562 C192.87,11.1562 192.594,11.1302 192.312,11.0781 C192.031,11.026 191.74,10.9427 191.438,10.8281 M193.609,7.4375 C194.089,7.4375 194.471,7.27083 194.758,6.9375 C195.044,6.60417 195.188,6.14583 195.188,5.5625 C195.188,4.98958 195.044,4.53385 194.758,4.19531 C194.471,3.85677 194.089,3.6875 193.609,3.6875 C193.12,3.6875 192.732,3.85677 192.445,4.19531 C192.159,4.53385 192.016,4.98958 192.016,5.5625 C192.016,6.14583 192.159,6.60417 192.445,6.9375 C192.732,7.27083 193.12,7.4375 193.609,7.4375 M200.719,7.1875 C200.198,7.1875 199.792,7.32552 199.5,7.60156 C199.208,7.8776 199.062,8.26042 199.062,8.75 C199.062,9.22917 199.208,9.60677 199.5,9.88281 C199.792,10.1589 200.198,10.2969 200.719,10.2969 C201.229,10.2969 201.633,10.1589 201.93,9.88281 C202.227,9.60677 202.375,9.22917 202.375,8.75 C202.375,8.26042 202.229,7.8776 201.938,7.60156 C201.646,7.32552 201.24,7.1875 200.719,7.1875 M199.625,6.73438 C199.167,6.61979 198.807,6.40365 198.547,6.08594 C198.286,5.76823 198.156,5.38021 198.156,4.92188 C198.156,4.27604 198.383,3.76562 198.836,3.39062 C199.289,3.01562 199.917,2.82812 200.719,2.82812 C201.51,2.82812 202.135,3.01562 202.594,3.39062 C203.052,3.76562 203.281,4.27604 203.281,4.92188 C203.281,5.38021 203.151,5.76823 202.891,6.08594 C202.63,6.40365 202.271,6.61979 201.812,6.73438 C202.333,6.84896 202.74,7.08333 203.031,7.4375 C203.323,7.79167 203.469,8.22917 203.469,8.75 C203.469,9.52083 203.232,10.1146 202.758,10.5312 C202.284,10.9479 201.604,11.1562 200.719,11.1562 C199.833,11.1562 199.154,10.9479 198.68,10.5312 C198.206,10.1146 197.969,9.52083 197.969,8.75 C197.969,8.22917 198.115,7.79167 198.406,7.4375 C198.698,7.08333 199.104,6.84896 199.625,6.73438 M199.234,5.01562 C199.234,5.43229 199.365,5.75781 199.625,5.99219 C199.885,6.22656 200.25,6.34375 200.719,6.34375 C201.177,6.34375 201.539,6.22656 201.805,5.99219 C202.07,5.75781 202.203,5.43229 202.203,5.01562 C202.203,4.59896 202.07,4.27344 201.805,4.03906 C201.539,3.80469 201.177,3.6875 200.719,3.6875 C200.25,3.6875 199.885,3.80469 199.625,4.03906 C199.365,4.27344 199.234,4.59896 199.234,5.01562 M205.562,10.0938 L207.344,10.0938 L207.344,3.96875 L205.406,4.35938 L205.406,3.375 L207.328,2.98438 L208.422,2.98438 L208.422,10.0938 L210.188,10.0938 L210.188,11 L205.562,11 L205.562,10.0938 M214.688,3.6875 C214.125,3.6875 213.703,3.96354 213.422,4.51562 C213.141,5.06771 213,5.89583 213,7 C213,8.09375 213.141,8.91667 213.422,9.46875 C213.703,10.0208 214.125,10.2969 214.688,10.2969 C215.25,10.2969 215.672,10.0208 215.953,9.46875 C216.234,8.91667 216.375,8.09375 216.375,7 C216.375,5.89583 216.234,5.06771 215.953,4.51562 C215.672,3.96354 215.25,3.6875 214.688,3.6875 M214.688,2.82812 C215.583,2.82812 216.268,3.1849 216.742,3.89844 C217.216,4.61198 217.453,5.64583 217.453,7 C217.453,8.34375 217.216,9.3724 216.742,10.0859 C216.268,10.7995 215.583,11.1562 214.688,11.1562 C213.792,11.1562 213.104,10.7995 212.625,10.0859 C212.146,9.3724 211.906,8.34375 211.906,7 C211.906,5.64583 212.146,4.61198 212.625,3.89844 C213.104,3.1849 213.792,2.82812 214.688,2.82812 M222.328,3.92188 L219.594,8.20312 L222.328,8.20312 L222.328,3.92188 M222.047,2.98438 L223.406,2.98438 L223.406,8.20312 L224.547,8.20312 L224.547,9.10938 L223.406,9.10938 L223.406,11 L222.328,11 L222.328,9.10938 L218.703,9.10938 L218.703,8.0625 L222.047,2.98438 M227.266,10.0938 L231.047,10.0938 L231.047,11 L225.969,11 L225.969,10.0938 C226.375,9.66667 226.935,9.09375 227.648,8.375 C228.362,7.65625 228.807,7.19271 228.984,6.98438 C229.328,6.58854 229.57,6.25521 229.711,5.98438 C229.852,5.71354 229.922,5.44792 229.922,5.1875 C229.922,4.76042 229.773,4.41406 229.477,4.14844 C229.18,3.88281 228.786,3.75 228.297,3.75 C227.964,3.75 227.607,3.8099 227.227,3.92969 C226.846,4.04948 226.443,4.22917 226.016,4.46875 L226.016,3.375 C226.453,3.19792 226.862,3.0625 227.242,2.96875 C227.622,2.875 227.969,2.82812 228.281,2.82812 C229.115,2.82812 229.779,3.03646 230.273,3.45312 C230.768,3.86979 231.016,4.42708 231.016,5.125 C231.016,5.45833 230.953,5.77083 230.828,6.0625 C230.703,6.35417 230.479,6.70312 230.156,7.10938 C230.062,7.21354 229.776,7.51302 229.297,8.00781 C228.818,8.5026 228.141,9.19792 227.266,10.0938 M233.328,2.98438 L237.594,2.98438 L237.594,3.89062 L234.328,3.89062 L234.328,5.85938 C234.484,5.80729 234.641,5.76823 234.797,5.74219 C234.953,5.71615 235.109,5.70312 235.266,5.70312 C236.161,5.70312 236.87,5.94792 237.391,6.4375 C237.911,6.92708 238.172,7.58854 238.172,8.42188 C238.172,9.28646 237.904,9.95833 237.367,10.4375 C236.831,10.9167 236.073,11.1562 235.094,11.1562 C234.76,11.1562 234.419,11.1276 234.07,11.0703 C233.721,11.013 233.359,10.9271 232.984,10.8125 L232.984,9.71875 C233.307,9.89583 233.641,10.0286 233.984,10.1172 C234.328,10.2057 234.693,10.25 235.078,10.25 C235.703,10.25 236.195,10.0859 236.555,9.75781 C236.914,9.42969 237.094,8.98438 237.094,8.42188 C237.094,7.86979 236.914,7.42969 236.555,7.10156 C236.195,6.77344 235.703,6.60938 235.078,6.60938 C234.786,6.60938 234.497,6.64323 234.211,6.71094 C233.924,6.77865 233.63,6.88021 233.328,7.01562 L233.328,2.98438 M242.625,7.1875 C242.104,7.1875 241.698,7.32552 241.406,7.60156 C241.115,7.8776 240.969,8.26042 240.969,8.75 C240.969,9.22917 241.115,9.60677 241.406,9.88281 C241.698,10.1589 242.104,10.2969 242.625,10.2969 C243.135,10.2969 243.539,10.1589 243.836,9.88281 C244.133,9.60677 244.281,9.22917 244.281,8.75 C244.281,8.26042 244.135,7.8776 243.844,7.60156 C243.552,7.32552 243.146,7.1875 242.625,7.1875 M241.531,6.73438 C241.073,6.61979 240.714,6.40365 240.453,6.08594 C240.193,5.76823 240.062,5.38021 240.062,4.92188 C240.062,4.27604 240.289,3.76562 240.742,3.39062 C241.195,3.01562 241.823,2.82812 242.625,2.82812 C243.417,2.82812 244.042,3.01562 244.5,3.39062 C244.958,3.76562 245.188,4.27604 245.188,4.92188 C245.188,5.38021 245.057,5.76823 244.797,6.08594 C244.536,6.40365 244.177,6.61979 243.719,6.73438 C244.24,6.84896 244.646,7.08333 244.938,7.4375 C245.229,7.79167 245.375,8.22917 245.375,8.75 C245.375,9.52083 245.138,10.1146 244.664,10.5312 C244.19,10.9479 243.51,11.1562 242.625,11.1562 C241.74,11.1562 241.06,10.9479 240.586,10.5312 C240.112,10.1146 239.875,9.52083 239.875,8.75 C239.875,8.22917 240.021,7.79167 240.312,7.4375 C240.604,7.08333 241.01,6.84896 241.531,6.73438 M241.141,5.01562 C241.141,5.43229 241.271,5.75781 241.531,5.99219 C241.792,6.22656 242.156,6.34375 242.625,6.34375 C243.083,6.34375 243.445,6.22656 243.711,5.99219 C243.977,5.75781 244.109,5.43229 244.109,5.01562 C244.109,4.59896 243.977,4.27344 243.711,4.03906 C243.445,3.80469 243.083,3.6875 242.625,3.6875 C242.156,3.6875 241.792,3.80469 241.531,4.03906 C241.271,4.27344 241.141,4.59896 241.141,5.01562 M250.578,6.67188 C251.099,6.78646 251.505,7.01823 251.797,7.36719 C252.089,7.71615 252.234,8.15104 252.234,8.67188 C252.234,9.46354 251.961,10.0755 251.414,10.5078 C250.867,10.9401 250.094,11.1562 249.094,11.1562 C248.75,11.1562 248.401,11.1224 248.047,11.0547 C247.693,10.987 247.328,10.8906 246.953,10.7656 L246.953,9.70312 C247.255,9.88021 247.583,10.0156 247.938,10.1094 C248.292,10.2031 248.667,10.25 249.062,10.25 C249.74,10.25 250.255,10.1146 250.609,9.84375 C250.964,9.57292 251.141,9.18229 251.141,8.67188 C251.141,8.19271 250.977,7.82031 250.648,7.55469 C250.32,7.28906 249.859,7.15625 249.266,7.15625 L248.328,7.15625 L248.328,6.26562 L249.312,6.26562 C249.844,6.26562 250.25,6.15885 250.531,5.94531 C250.812,5.73177 250.953,5.42708 250.953,5.03125 C250.953,4.61458 250.807,4.29688 250.516,4.07812 C250.224,3.85938 249.807,3.75 249.266,3.75 C248.974,3.75 248.656,3.78125 248.312,3.84375 C247.969,3.90625 247.594,4.00521 247.188,4.14062 L247.188,3.17188 C247.604,3.05729 247.992,2.97135 248.352,2.91406 C248.711,2.85677 249.047,2.82812 249.359,2.82812 C250.182,2.82812 250.836,3.01562 251.32,3.39062 C251.805,3.76562 252.047,4.27604 252.047,4.92188 C252.047,5.35938 251.919,5.73177 251.664,6.03906 C251.409,6.34635 251.047,6.55729 250.578,6.67188 M254.281,2.98438 L258.547,2.98438 L258.547,3.89062 L255.281,3.89062 L255.281,5.85938 C255.438,5.80729 255.594,5.76823 255.75,5.74219 C255.906,5.71615 256.062,5.70312 256.219,5.70312 C257.115,5.70312 257.823,5.94792 258.344,6.4375 C258.865,6.92708 259.125,7.58854 259.125,8.42188 C259.125,9.28646 258.857,9.95833 258.32,10.4375 C257.784,10.9167 257.026,11.1562 256.047,11.1562 C255.714,11.1562 255.372,11.1276 255.023,11.0703 C254.674,11.013 254.312,10.9271 253.938,10.8125 L253.938,9.71875 C254.26,9.89583 254.594,10.0286 254.938,10.1172 C255.281,10.2057 255.646,10.25 256.031,10.25 C256.656,10.25 257.148,10.0859 257.508,9.75781 C257.867,9.42969 258.047,8.98438 258.047,8.42188 C258.047,7.86979 257.867,7.42969 257.508,7.10156 C257.148,6.77344 256.656,6.60938 256.031,6.60938 C255.74,6.60938 255.451,6.64323 255.164,6.71094 C254.878,6.77865 254.583,6.88021 254.281,7.01562 L254.281,2.98438"/>
</g>

<g fill="none" stroke="#000000" stroke-opacity="1" stroke-width="1" stroke-linecap="square" stroke-linejoin="bevel" transform="matrix(2,0,0,2,469.922,64)"
font-family="sans" font-size="11" font-weight="100" font-style="normal" 
>
</g>

<g fill="none" stroke="#000000" stroke-opacity="1" stroke-width="1" stroke-linecap="square" stroke-linejoin="bevel" transform="matrix(2,0,0,2,469.922,64)"
font-family="Ubuntu" font-size="11" font-weight="400" font-style="normal" 
>
</g>

<g fill="none" stroke="#000000" stroke-opacity="1" stroke-width="1" stroke-linecap="square" stroke-linejoin="bevel" transform="matrix(2,0,0,2,-15,221)"
font-family="Ubuntu" font-size="11" font-weight="400" font-style="normal" 
>
</g>

<g fill="none" stroke="#000000" stroke-opacity="1" stroke-width="1" stroke-linecap="square" stroke-linejoin="bevel" transform="matrix(2,0,0,2,-15,221)"
font-family="Ubuntu" font-size="11" font-weight="400" font-style="normal" 
>
</g>

<g fill="none" stroke="#000000" stroke-opacity="1" stroke-width="1" stroke-linecap="square" stroke-linejoin="bevel" transform="matrix(2,0,0,2,-15,221)"
font-family="Ubuntu" font-size="11" font-weight="400" font-style="normal" 
>
</g>

<g fill="none" stroke="#000000" stroke-opacity="1" stroke-width="1" stroke-linecap="square" stroke-linejoin="round" transform="matrix(2,0,0,2,-15,221)"
font-family="Ubuntu" font-size="11" font-weight="400" font-style="normal" 
>
<path vector-effect="none" fill-rule="evenodd" d="M8,-110 L82,-110 L82,-35 L8,-35 L8,-110"/>
</g>

<g fill="none" stroke="#000000" stroke-opacity="1" stroke-width="1" stroke-linecap="square" stroke-linejoin="bevel" transform="matrix(2,0,0,2,-15,221)"
font-family="Ubuntu" font-size="11" font-weight="400" font-style="normal" 
>
</g>

<g fill="none" stroke="#000000" stroke-opacity="1" stroke-width="1" stroke-linecap="square" stroke-linejoin="bevel" transform="matrix(2,0,0,2,49.25,10)"
font-family="Ubuntu" font-size="11" font-weight="400" font-style="normal" 
>
</g>

<g fill="none" stroke="#000000" stroke-opacity="1" stroke-width="1" stroke-linecap="square" stroke-linejoin="bevel" transform="matrix(2,0,0,2,49.25,10)"
font-family="sans" font-size="11" font-weight="100" font-style="normal" 
>
</g>

<g fill="#000000" fill-opacity="1" stroke="#000000" stroke-opacity="1" stroke-width="1" stroke-linecap="square" stroke-linejoin="round" transform="matrix(2,0,0,2,49.25,10)"
font-family="sans" font-size="11" font-weight="100" font-style="normal" 
>
<path vector-effect="non-scaling-stroke" fill-rule="nonzero" d="M0.328125,4.98438 L1.375,4.98438 L3.25,10.0312 L5.14062,4.98438 L6.1875,4.98438 L3.92188,11 L2.57812,11 L0.328125,4.98438 M11.0156,5.90625 C10.9115,5.84375 10.7943,5.79688 10.6641,5.76562 C10.5339,5.73438 10.3906,5.71875 10.2344,5.71875 C9.67188,5.71875 9.24219,5.90104 8.94531,6.26562 C8.64844,6.63021 8.5,7.15104 8.5,7.82812 L8.5,11 L7.5,11 L7.5,4.98438 L8.5,4.98438 L8.5,5.92188 C8.69792,5.55729 8.96354,5.28646 9.29688,5.10938 C9.63021,4.93229 10.0365,4.84375 10.5156,4.84375 C10.5885,4.84375 10.6641,4.84635 10.7422,4.85156 C10.8203,4.85677 10.9115,4.86979 11.0156,4.89062 L11.0156,5.90625 M17.2031,7.75 L17.2031,8.23438 L12.6562,8.23438 C12.6979,8.91146 12.901,9.42708 13.2656,9.78125 C13.6302,10.1354 14.1406,10.3125 14.7969,10.3125 C15.1823,10.3125 15.5521,10.2656 15.9062,10.1719 C16.2604,10.0781 16.6146,9.94271 16.9688,9.76562 L16.9688,10.6875 C16.6146,10.8438 16.25,10.9609 15.875,11.0391 C15.5,11.1172 15.125,11.1562 14.75,11.1562 C13.7812,11.1562 13.0182,10.8776 12.4609,10.3203 C11.9036,9.76302 11.625,9.00521 11.625,8.04688 C11.625,7.06771 11.8906,6.28906 12.4219,5.71094 C12.9531,5.13281 13.6719,4.84375 14.5781,4.84375 C15.3802,4.84375 16.0182,5.10417 16.4922,5.625 C16.9661,6.14583 17.2031,6.85417 17.2031,7.75 M16.2031,7.45312 C16.2031,6.91146 16.0547,6.47917 15.7578,6.15625 C15.4609,5.83333 15.0677,5.67188 14.5781,5.67188 C14.026,5.67188 13.5859,5.82812 13.2578,6.14062 C12.9297,6.45312 12.7396,6.89062 12.6875,7.45312 L16.2031,7.45312 M19.7812,10.0938 L19.7812,13.2812 L18.7812,13.2812 L18.7812,4.98438 L19.7812,4.98438 L19.7812,5.89062 C19.9792,5.53646 20.237,5.27344 20.5547,5.10156 C20.8724,4.92969 21.2552,4.84375 21.7031,4.84375 C22.4323,4.84375 23.0234,5.13281 23.4766,5.71094 C23.9297,6.28906 24.1562,7.05208 24.1562,8 C24.1562,8.94792 23.9297,9.71094 23.4766,10.2891 C23.0234,10.8672 22.4323,11.1562 21.7031,11.1562 C21.2552,11.1562 20.8724,11.0703 20.5547,10.8984 C20.237,10.7266 19.9792,10.4583 19.7812,10.0938 M23.1406,8 C23.1406,7.27083 22.9896,6.70052 22.6875,6.28906 C22.3854,5.8776 21.974,5.67188 21.4531,5.67188 C20.9323,5.67188 20.5234,5.8776 20.2266,6.28906 C19.9297,6.70052 19.7812,7.27083 19.7812,8 C19.7812,8.72917 19.9297,9.29948 20.2266,9.71094 C20.5234,10.1224 20.9323,10.3281 21.4531,10.3281 C21.974,10.3281 22.3854,10.1224 22.6875,9.71094 C22.9896,9.29948 23.1406,8.72917 23.1406,8 "/>
</g>

<g fill="none" stroke="#000000" stroke-opacity="1" stroke-width="1" stroke-linecap="square" stroke-linejoin="bevel" transform="matrix(2,0,0,2,49.25,10)"
font-family="sans" font-size="11" font-weight="100" font-style="normal" 
>
</g>

<g fill="none" stroke="#000000" stroke-opacity="1" stroke-width="1" stroke-linecap="square" stroke-linejoin="bevel" transform="matrix(2,0,0,2,49.25,10)"
font-family="Ubuntu" font-size="11" font-weight="400" font-style="normal" 
>
</g>

<g fill="none" stroke="#000000" stroke-opacity="1" stroke-width="1" stroke-linecap="square" stroke-linejoin="bevel" transform="matrix(2,0,0,2,-15,221)"
font-family="Ubuntu" font-size="11" font-weight="400" font-style="normal" 
>
</g>

<g fill="none" stroke="#000000" stroke-opacity="1" stroke-width="1" stroke-linecap="square" stroke-linejoin="bevel" transform="matrix(2,0,0,2,-15,221)"
font-family="Ubuntu" font-size="11" font-weight="400" font-style="normal" 
>
</g>

<g fill="none" stroke="#000000" stroke-opacity="1" stroke-width="1" stroke-linecap="square" stroke-linejoin="bevel" transform="matrix(2,0,0,2,-15,221)"
font-family="Ubuntu" font-size="11" font-weight="400" font-style="normal" 
>
</g>

<g fill="none" stroke="#000000" stroke-opacity="1" stroke-width="1" stroke-linecap="square" stroke-linejoin="round" transform="matrix(2,0,0,2,-15,221)"
font-family="Ubuntu" font-size="11" font-weight="400" font-style="normal" 
>
<path vector-effect="none" fill-rule="evenodd" d="M70.875,-53.19 C74.047,-52.195 77.379,-51.148 80.784,-50.08 "/>
</g>

<g fill="none" stroke="#000000" stroke-opacity="1" stroke-width="1" stroke-linecap="square" stroke-linejoin="bevel" transform="matrix(2,0,0,2,-15,221)"
font-family="Ubuntu" font-size="11" font-weight="400" font-style="normal" 
>
</g>

<g fill="none" stroke="#000000" stroke-opacity="1" stroke-width="1" stroke-linecap="square" stroke-linejoin="bevel" transform="matrix(2,0,0,2,-15,221)"
font-family="Ubuntu" font-size="11" font-weight="400" font-style="normal" 
>
</g>

<g fill="#000000" fill-opacity="1" stroke="#000000" stroke-opacity="1" stroke-width="1" stroke-linecap="square" stroke-linejoin="round" transform="matrix(2,0,0,2,-15,221)"
font-family="Ubuntu" font-size="11" font-weight="400" font-style="normal" 
>
<path vector-effect="none" fill-rule="evenodd" d="M80.784,-50.08 L79.7172,-46.6822 L90.492,-47.032 L81.8508,-53.4778 L80.784,-50.08"/>
</g>

<g fill="none" stroke="#000000" stroke-opacity="1" stroke-width="1" stroke-linecap="square" stroke-linejoin="bevel" transform="matrix(2,0,0,2,-15,221)"
font-family="Ubuntu" font-size="11" font-weight="400" font-style="normal" 
>
</g>

<g fill="none" stroke="#000000" stroke-opacity="1" stroke-width="1" stroke-linecap="square" stroke-linejoin="bevel" transform="matrix(2,0,0,2,-15,221)"
font-family="Ubuntu" font-size="11" font-weight="400" font-style="normal" 
>
</g>

<g fill="none" stroke="#000000" stroke-opacity="1" stroke-width="1" stroke-linecap="square" stroke-linejoin="bevel" transform="matrix(2,0,0,2,-15,221)"
font-family="Ubuntu" font-size="11" font-weight="400" font-style="normal" 
>
</g>

<g fill="none" stroke="#000000" stroke-opacity="1" stroke-width="1" stroke-linecap="square" stroke-linejoin="bevel" transform="matrix(2,0,0,2,-15,221)"
font-family="Ubuntu" font-size="11" font-weight="400" font-style="normal" 
>
</g>

<g fill="none" stroke="#000000" stroke-opacity="1" stroke-width="1" stroke-linecap="square" stroke-linejoin="round" transform="matrix(2,0,0,2,-15,221)"
font-family="Ubuntu" font-size="11" font-weight="400" font-style="normal" 
>
<path vector-effect="none" fill-rule="evenodd" d="M70.875,-68.81 C78.79,-71.295 87.709,-74.095 96.236,-76.772 "/>
</g>

<g fill="none" stroke="#000000" stroke-opacity="1" stroke-width="1" stroke-linecap="square" stroke-linejoin="bevel" transform="matrix(2,0,0,2,-15,221)"
font-family="Ubuntu" font-size="11" font-weight="400" font-style="normal" 
>
</g>

<g fill="none" stroke="#000000" stroke-opacity="1" stroke-width="1" stroke-linecap="square" stroke-linejoin="bevel" transform="matrix(2,0,0,2,-15,221)"
font-family="Ubuntu" font-size="11" font-weight="400" font-style="normal" 
>
</g>

<g fill="#000000" fill-opacity="1" stroke="#000000" stroke-opacity="1" stroke-width="1" stroke-linecap="square" stroke-linejoin="round" transform="matrix(2,0,0,2,-15,221)"
font-family="Ubuntu" font-size="11" font-weight="400" font-style="normal" 
>
<path vector-effect="none" fill-rule="evenodd" d="M96.236,-76.772 L97.307,-73.3616 L105.98,-79.832 L95.165,-80.1824 L96.236,-76.772"/>
</g>

<g fill="none" stroke="#000000" stroke-opacity="1" stroke-width="1" stroke-linecap="square" stroke-linejoin="bevel" transform="matrix(2,0,0,2,-15,221)"
font-family="Ubuntu" font-size="11" font-weight="400" font-style="normal" 
>
</g>

<g fill="none" stroke="#000000" stroke-opacity="1" stroke-width="1" stroke-linecap="square" stroke-linejoin="bevel" transform="matrix(2,0,0,2,-15,221)"
font-family="Ubuntu" font-size="11" font-weight="400" font-style="normal" 
>
</g>

<g fill="none" stroke="#000000" stroke-opacity="1" stroke-width="1" stroke-linecap="square" stroke-linejoin="bevel" transform="matrix(2,0,0,2,-15,221)"
font-family="Ubuntu" font-size="11" font-weight="400" font-style="normal" 
>
</g>

<g fill="none" stroke="#000000" stroke-opacity="1" stroke-width="1" stroke-linecap="square" stroke-linejoin="bevel" transform="matrix(2,0,0,2,-15,221)"
font-family="Ubuntu" font-size="11" font-weight="400" font-style="normal" 
>
</g>

<g fill="none" stroke="#000000" stroke-opacity="1" stroke-width="1" stroke-linecap="square" stroke-linejoin="round" transform="matrix(2,0,0,2,-15,221)"
font-family="Ubuntu" font-size="11" font-weight="400" font-style="normal" 
>
<path vector-effect="none" fill-rule="evenodd" d="M175.73,-34 C177.84,-34 180.01,-34 182.23,-34 "/>
</g>

<g fill="none" stroke="#000000" stroke-opacity="1" stroke-width="1" stroke-linecap="square" stroke-linejoin="bevel" transform="matrix(2,0,0,2,-15,221)"
font-family="Ubuntu" font-size="11" font-weight="400" font-style="normal" 
>
</g>

<g fill="none" stroke="#000000" stroke-opacity="1" stroke-width="1" stroke-linecap="square" stroke-linejoin="bevel" transform="matrix(2,0,0,2,-15,221)"
font-family="Ubuntu" font-size="11" font-weight="400" font-style="normal" 
>
</g>

<g fill="#000000" fill-opacity="1" stroke="#000000" stroke-opacity="1" stroke-width="1" stroke-linecap="square" stroke-linejoin="round" transform="matrix(2,0,0,2,-15,221)"
font-family="Ubuntu" font-size="11" font-weight="400" font-style="normal" 
>
<path vector-effect="none" fill-rule="evenodd" d="M182.23,-34 L182.23,-30.4825 L192.28,-34 L182.23,-37.5175 L182.23,-34"/>
</g>

<g fill="none" stroke="#000000" stroke-opacity="1" stroke-width="1" stroke-linecap="square" stroke-linejoin="bevel" transform="matrix(2,0,0,2,-15,221)"
font-family="Ubuntu" font-size="11" font-weight="400" font-style="normal" 
>
</g>

<g fill="none" stroke="#000000" stroke-opacity="1" stroke-width="1" stroke-linecap="square" stroke-linejoin="bevel" transform="matrix(1,0,0,1,0,0)"
font-family="Ubuntu" font-size="11" font-weight="400" font-style="normal" 
>
</g>
</g>
</svg>
